<svg version="1.2" xmlns="http://www.w3.org/2000/svg" width="512" height="512"><style>.s0{fill:#c4bbb7}.s1{fill:#310902}.s2{fill:#a48366}.s3{fill:#713514}.s4{fill:#d67a1c}.s5{fill:#f3b55c}.s6{fill:#f8eedf}</style><g id="#c4bbb7ff"><path id="Layer" fill-rule="evenodd" class="s0" d="M245 520h512v512H638.8c-1.4-.7-2.8-1.4-4.1-2.1 2.3-6.4.5-13.3-1.7-19.5-2.6-11.5-7-22.4-12.2-32.9-2.7-7.8-4.1-16-8.1-23.2-4.2-6.3-.2-14-.9-20.8l-10.6-2.2 5.6-7.8c-6.7-5.6-9.2-14.7-8.6-23.1-.2-6.3 2.5-12 3.1-18.2-.8-6.3-4.9-11.9-11.2-13.7q2.4-2.7 4.8-5.5-1.5-2-3.1-4.1c.5-1.5 1.2-3.1 1.4-4.8-1.4-2.5-4-4.1-6.2-5.9q1.8-3.4 3.7-6.7-2.4-.9-4.8-1.7c1-4.1 2.1-8.3 1.6-12.6-.7-6.9-1.1-14-3.3-20.6-3.2-8.2-5.1-16.9-8.9-24.8-3.5-6.8-2.9-14.7-4.3-21.9-1.8-7.1-5.2-13.6-8.7-19.8l-.2-.5c2.7-4.4-.2-9-2.4-12.9l-.2-.7c-.1-3.7-.6-7.5-3.3-10.4-.5-.1-1.5-.5-2.1-.7-.5 0-1.3.1-2.1.1 4.6-.9 9.3-2 13.9-3.2 17-6 23.5-24.7 27.1-40.8-10.4.6-21 .5-31.2 3-4.9 2.9-9.4 6.5-14.7 8.9l-.2-.6c-.5-1.4-1.5-3.9-3.3-3.2-.7 1.3 1.1 2.2 1.9 2.9q-1.5.6-2.5 1.8-.2-2.6-.8-5.3c-1.6-2.4-3.4-4.5-5.3-6.7v-1.6l-.2-8.4V660q1.9-1 1.3-3.1c1-3.5 1.9-7 2.6-10.6 1.4-1 2.6-2.5 2.6-4.3l.8-5c.1-.5.4-1.5.5-2 .9-3.4 2-6.7 3.3-10q2 .1 2.6-1.8c.8-2.5 1.8-4.9 2.7-7.4 1.2-.8 2.3-2.8.7-4-1.5-1.5-2.7-3.4-4.8-4.2-3-1-6-1.9-9-2.7-3.3-1.3-6.8-.7-10.2-.3q-1.9.2-2.1 2.2-.4 2.3-.8 4.7c-.2 1-.3 2.1-.3 3.1v8.5c-.1 3.4-.8 6.8-2.4 9.8-4 5.2-8.2 10.3-12.4 15.4-3.2 3-6.6 5.8-10.4 8.1 1.1-3.3-2.8-3-2.4.2l-.7-.2c-1.6-.4-4.7-1.3-6.3-1.7q-1.5-1.4-3.2-.5c-.7-.2-2-.4-2.7-.6-1.2-1.7-2.4-3.4-3.6-5.2l-.1-.7q-.5-2-2.7-1.7c-1.1-2.5-2.3-5.1-2.8-7.8q-.1-6.3.1-12.6c0-.7-.3-2.1-.4-2.8q2.2.9 2.8-1.2c1-5.7 4-14.6-3.6-16.4-.8-.1-2.2-.2-2.9-.2-1.6-.6-3.3-1-5-.6q-2.6.4-5.1.7c-.7-1.3-2.3-1.6-3.7-1.3q-1.9 0-2.4 1.8c-.2.6-.6 1.7-.8 2.2q-1.2 3.1-2.3 6.2-.6 1.9 1.4 2.9l.2.8c.7 2.2 1.4 4.5 1.9 6.8-.5 5.1-.9 10.2-1.1 15.3-3.1 12.1-4.4 25.6-12.9 35.4-7.3 4.5-16.2 5.1-24.5 6.7 2.3 8.1 5.7 15.8 7.3 24.1l-.3.6q-5.4 5.1-10.8 10.4c-2.2 1.7-4.4 3.3-6.7 5-.6.2-1.9.8-2.5 1.1q-1.8 1.1-3.5 2.2c-1.4-.6-3.3.1-3.4 1.7l-.7.1q-3.6.7-7.2 1.5l-1.2.3-.7.1c-.3.1-1 .3-1.3.4-2.1.3-4.3 1.2-5 3.4-1 2.2-1.9 4.6-2.4 7-.1.4-.2 1.4-.2 1.9-2.7 3.5-5.3 7.1-7.2 11-1.5 4.8-.5 9.9.9 14.5.3 1.6 2.3 1.4 3.5 1.2.2.2.6.7.8.9.5 4.6-1.2 11.2 4 13.8 4.8 4 10.8 1.4 16.1.1q-1-.9-2.1-1.7c3.7-1.3 7.1-3 10.3-5.1 4-2.8 7.5-7.9 13.1-6.9h.8l.9.1c1.2.5 3.6 1.6 4.8 2.2.5-.5 1.5-1.4 2-1.9l4.8-.8c6.7.3 13.4.8 20.1.1.5-3.1.9-6.2 1.6-9.2l.2-.6c.5-.1 1.7-.3 2.2-.4l-.2.8c-.5 2.3-1.2 4.7-1.8 7 3.1.1 6.1.3 9.2.2q2-.3 3.9-.8l6.6-1.6q-1.2-1.3-2.4-2.5c-.5-.3-1.5-1-2-1.3.8-.9.8-2.2.5-3.3l-.4-3.2c6.5-5.1 12.3-11.1 19.5-15.1 6.2-1.5 12.6-2.2 18.9-1.2 3.4-3 7-5.9 10.8-8.4.7 4 1.5 7.9 2.2 11.9l.2 1.1c0 .5.2 1.5.3 2q3.2-.5 6.5-.8l1.3-.1c.8-2.5 1.6-5.1 2.5-7.6 1.7 0 3.5 0 5.2-.5 2.9-4.8 4.7-10.2 7.5-15-1.7 10.2-6 20.4-13.8 27.5-9.4 5.5-19 11.9-30.3 12.2 1.6-.4 4.8-1.1 6.4-1.5l-3.2-3c-.5-.6-1.3-1.9-1.7-2.5q1.5-1.4 1.6-3.5c.1-.4.3-1.2.4-1.7.8-1.4 1-4.4-1.4-4.1-.5 0-1.3.1-1.7.1-1.4-.2-3.1-.1-3.9 1.2l-.5.6c-2.9 3.1-6.6 5.9-7.8 10.2-1-.6-2.2-1-3.4-.5 1.3-2.4 2.7-4.7 3.8-7.1.2.9 1.1 1.7 2 1 1.4-.9-.1-3.3-1.4-2.2-.4.2-.5.6-.6.9l-.8-.1c-2.4-.3-5.1-1.1-7.4.2-3.1 1.8-5.9 3.9-8.9 5.8l-1.1.8c1 2.1 1.4 6.5 4.7 5.2l.9-.3c.9-.3 2.5-.8 3.4-1-.6.6-1.7 1.9-2.2 2.5l-.7.8q-1 1-2 2.1c4.9-.6 9.7-1.6 14.4-3-1.4-1.2-2.7-2.5-4-3.7 1.1.1 2.2-.3 3.2-.9l1.8 2c.3.4 1 1.1 1.3 1.5l.5.5.4.5 1.4 2q.7 1.5 1.4 2.9c.3.6.8 1.7 1.1 2.2l.2.4c3.5 6.1 7.2 13.6 14.5 15.5 12.6.2 24-8.6 30.1-19.1 3.3-13.3.2-27.6 4.6-40.7q0 6.5-.5 12.9c0 .4-.1 1.3-.1 1.7-2.2 8.1 1.8 15.4 1.9 23.3-.2.6-.6 2-.7 2.6-.9 2.5-1.8 4.9-2.8 7.4q-1.8.9-1.4 2.8c.1.8.2 2.3.2 3.1q-.6-1.2-1.2-2.3h-1.2q-2.1.4-1 2.5c-1.8-.7-3.5.6-3.9 2.4-.1.7-.2 2.1-.3 2.8-2.3 1.1-4.3 2.6-5.5 4.9l-.2.4c-1.5.4-2.6 1.7-2.7 3.2l-.1.8c-2 .5-3.5 1.9-3.9 3.9-.2.7-.6 1.9-.9 2.5-.5.1-1.5.3-2.1.4-3 .2-7.1 1.8-9.3-1.2-3.6-4.8-6.8-9.8-9-15.3 4 4.2 7.9 8.8 13.5 10.9 7.2 1.3 10.9-6 13.2-11.5-4.7 1.7-9 3.9-13.4 6.1-4.3-2.5-8.5-5.2-13-7.4-.1.5-.2 1.4-.3 1.9l-1.8-4.4c.9 5.7 1.8 11.4 3.5 17 .4 3.7.5 7.5.9 11.3.5 5.6.7 11.3 2.4 16.7-4 6.2-4.6 13.5-4.6 20.7l-.1.7c-2 8.4.1 16.6 1.8 24.7-.3 3.7-1 7.5-1.5 11.3.6-.1 1.9-.2 2.5-.3-1.4 2.2-2.3 4.7-2.7 7.3-.2 1.5-.3 3-.3 4.5q-.1 4.3 0 8.7c.1 1.6.2 4.8.3 6.3q.1 2.9.1 5.8c.1 6.1.7 12.1 1.2 18.1-.2 1.2-.5 2.5-.7 3.7-.6 1.5.6 2.8 1.8 3.6l.1.8c-.3 8.4-.4 16.9.6 25.3v2.1c0 4.7 0 9.5.3 14.3l.1 1c.4 5.7 1.5 11.4 1.9 17.1q-.7 1.3-1.4 2.7c-2 4.6-2.7 9.8-2 14.7 1.3 2.9 3.9 5.1 5.8 7.6.3 2.5.7 5.1 1.2 7.6H245zm244.8 228.2h-.2v.3q.1-.1.2-.3zM552 715q-2.4.4-4.8.7-.1-.3-.1-.6c1.1 0 3.1-.1 4.9-.1zm-3.8 4.8c-4.7-2.2-9 .9-12.8 3.3-2.6 1.6-2.8 4.8-3.6 7.4-1.5-1.7-3-3.5-4.7-5.1l.8-.6c2.1-1.6 3.7-3.7 5-6q1.1 1.3 2.3 2.5 2.8-2.6 5.7-5.1 3.1-.1 6.3-.5.5 2.1 1 4.1zM510 744.4c-.9 1.3-1.6 2.8-2.1 4.4-.9 2.3-1.7 4.7-1.9 7.1q3.2.9 6.6 1l.5-.9c1.2 1.4 3.6-.5 2.7-2 .3-.1 1-.5 1.4-.7 1.9-2.5 3.1-5.6 2.2-8.8-.2-.5-.6-1.4-.7-1.9 1.7-1.2.6-5.1-1.7-4.3-.2-.5-.6-1.6-.8-2.1-2.9 2-5.6 4.5-6.2 8.2zm-12.8-2.3c-1.1.2-2.6 2.2-1.1 2.8 1.8.6 3.7-3.1 1.1-2.8zm-9.9.7q-.6 1.7-1.3 3.5 2.7-.8 5.3-1.6-2-.9-4-1.9zm33.1 9.1c3.8-1.4 7.6-3.5 10.3-6.7-4 1.3-8.4 2.5-10.3 6.7z"/><path id="Layer" class="s0" d="M274.3 124.3q-.4-2.3 1.8-2.2.2 1.9-1.8 2.2zM211.3 131.5c-.3-2.7 2.8-.9 1.4.9-.3-.2-1.1-.7-1.4-.9zM209.4 139.5c-1.4-2.6-.3-5 1.5-7.1q-.5 3.6-1.5 7.1zM213 132.8c1.8 1.4 1.2 3.7-.5 4.7-.2-1.6 0-3.2.5-4.7zM253.3 136.4l.7.2c.3.1 1 .3 1.3.4q-1.9 3.2-4.1 6.3-1.6-.9-3.3-1.8l-.2-1.1q2.5-.2 5-.3l-2.8-3.4q1.7-.2 3.4-.3zM263.3 136.1q1.5-.6 2.9.2c-.1.3-.2 1-.3 1.3-.6-.2-1.9-.6-2.5-.8zM280.2 136.2c.7.1 2 .3 2.7.4q-1.1 1.4-2.1 2.9l-.8-.2c-.4 0-1.3-.1-1.7-.1q1-1.5 1.9-3zM255.7 140.1c1.2-.9 2.5-1.9 3.8-2.8.1.7.2 2.1.3 2.9q-2.1-.1-4.1-.1zM261.9 140.3q-.3-1.9 1.6-2.7.5 2.2-1.6 2.7zM273.9 141q-.3-2.1 1.9-2 .1 2-1.9 2zM250.2 144.8q3.8-.8 7.6-1.7c-.1.4-.3 1.2-.4 1.7q-1.3 1.3-2.5 2.6-1.4-.9-2.8-1.7c.1.8.3 2.5.3 3.3-.5 3.2 4.8 2.7 2.4-.2.5 0 1.3 0 1.8-.1.6 0 1.7.1 2.3.1q-1.2 1.5-2.3 3c1 .1 2.9.2 3.9.2q-2.1 1-4.1 2-1.4-1.2-2.8-2.3c1.1 2.1 2.2 4.2 3.5 6.2h-1.7l-3.2.2c-.8.1-2.3.2-3 .2.5-.3 1.4-1.1 1.9-1.4l.6-.4c.2-.2.7-.5 1-.7-.7-1.4-1.4-2.7-2.1-4.1l-.4-.7q.3-2.1-1.6-2.5l.1-1q.7-1.4 1.5-2.7zM262.3 143.3l.5-.2c.2.4.5 1.1.6 1.5-.5.3-1.7 1-2.3 1.4l-.2-.5c.4-.6 1-1.6 1.4-2.2zM259.8 148.8c1.3 0 2.5.6 3.4 1.5-.4.5-1 1.4-1.3 1.8h-.6c-.6-1.1-1-2.2-1.5-3.3zM237.4 149.9c.4.2 1.2.8 1.6 1-1.7 1.6-3.4 3-5 4.6 1.2-1.8 2.3-3.8 3.4-5.6zM239.5 151.3q3.5 2.3 6.8 4.7-3.4-2.2-6.8-4.7zM280.4 154.7c-.9-.7-1.5-3.6.3-3q.8 1.5.3 3.3zM203 154.4c-1.9-.7-.2-2.8 1.3-2.3-.4.5-1 1.7-1.3 2.3zM336.9 154.9q2.1-.4 4.3-.7c-1.7 3.3-3.6 6.7-6.2 9.3-5.2 5.1-9.1 11.9-15.9 15.1.3-.4.8-1.1 1.1-1.4 4.3-8.4 11.7-14.4 16.7-22.3zM325.2 156.5c-1.1-1.8 1.7-2.2 2.9-1.7l-.1.6c-.7.2-2.1.8-2.8 1.1zM233.8 155.7c2.1 2.3-.5 4.3-2.8 4.3.8-1.5 1.6-3 2.8-4.3z"/><path id="Layer" class="s0" d="M247 156.5q2-.9 3.3.8-1.8.9-3.3-.8zM278.4 157.5c.9-.8 1.8-1.4 2.7-2.1l.2.9c.1 2.4 0 4.7-.1 7.1l-.3.6c-.5-2.3-1.5-4.4-2.5-6.5zM288.8 162.1c2-1.5 3.9-3 6.1-4.2q-3 2.1-6.1 4.2zM198.7 160.1c1.4 3.7-4 1.6-.8-.5zM258.9 160.2c.9-.1 2.6-.3 3.4-.4.3-.1 1-.2 1.3-.2q-1.5 1.4-3.1 2.8c-.4-.5-1.2-1.7-1.6-2.2z"/><path id="Layer" fill-rule="evenodd" class="s0" d="M298.5 174.3c5.3-4.7 10.2-9.8 15.6-14.5l-2 4.2q-1.7 1.5-.5 3.4c-1.3 2.8-2.7 5.7-5.2 7.5q-2-1.2-3.9-2.4-2.1 2.3-4.4 4.6l.4-2.8zm6.6-4.2q-1.9 1 0 2 2-1 0-2zM220.7 163.4c2.7-.3 5.4-.7 7.9-1.7-.7 1-1.3 2.1-1.9 3.2q-1.3.3-2.7.5c.7 3.9.9 8.4-2.2 11.3-5.3 5.6-11.8 10.1-14.3 17.8q4.9-1.2 9.5-3.5c3-2.1 4-5.8 5.4-8.9h2.4c1.2 4.7 3.6 9.7 1.9 14.6-3.7 4.5-9.6 6.5-13.8 10.5q.8-2 1.6-4.1c6.9-2.9 9.2-10.1 9.8-17-4 5.1-9.7 9.3-16.5 9-11.4-.4-15 16.3-26.6 14.8 3.9-.3 6.8-3.1 9.3-5.9q-6.3 2.7-12.4 5.8l.7-1.2c2-1.4 4-2.5 6.1-3.7l.6-.3c1.1-1.3 2-2.6 2.8-4.1-1-1.4-2.1-2.8-3.2-4.2q1.9.1 3.9.1l1.2 3.8 1.2 1.6c2.6-2.4 5.3-4.5 8.1-6.6-3.3.4-6.5.8-9.7 1.1 6.3-3 10.8-9 17.2-11.9 6-2.9 15.4-7.4 13.9-15.5q-.1-2.7-.2-5.5zm-20.5 26.9c-1.5 1 .2 3.5 1.6 2.4 1.5-1-.2-3.5-1.6-2.4zM277.1 161.9c.9 1.3 1.8 2.5 2.7 3.8-2.9 2.8-2.3 6.6-.6 9.9q1.1-2.7 2.3-5.4c1.9 4.6 4 9 6.4 13.4-.9-7.1-2.9-13.9-4.8-20.7q2.5-.1 5-.3l.6 6.9c2.8 2.7 4.8 6 7 9.1q.3-2.4.5-4.9.3 5.6.8 11.2 1.6-.4 3.3-.7l.8-.2c-1 1.3-2 2.7-3 4q2.4 2.4 4.8 4.9c-2.6.9-5.1 1.8-7.7 2.7-3.2-3.3-5.1-7.7-7.1-11.8q.4 3.2.8 6.5-2-2.8-3.9-5.7c-.4 5-5.1 4.9-8.6 5.7l.4-6c-.5-.3-1.6-.9-2.1-1.2l-6.4 4.6-.6-.5-.8-3.6 5-1.8c-4.2-3.6-9.7-3.4-14.8-3q-.8 1.8-1.6 3.7l-4.2-.8c3.4-3.9 8.1-6.3 13-7.9-2.4-1-4.9-2-7.3-2.8-.3-.5-.8-1.5-1.1-2 3.7 0 7.4.5 10.4 2.7q-1-2-2.1-4l3.6 5.2q1.7-3 3.3-5.9 1.4 3.2 2.8 6.3c1.2-3.8 2.6-7.5 3.2-11.4zm15.8 19.2c-.5 2.8-1.1 5.6-.7 8.5 1.4 2.2 4 3.1 6.3 4.2-1.8-4.2-3.1-8.7-5.6-12.7z"/><path id="Layer" class="s0" d="M202.9 162.8c.3 0 .9.2 1.2.3q-.9 1.5-1 3.3c-.3.1-.9.4-1.1.6-.8-1.5-.4-3.3.9-4.2zM204.9 163.1c2.9-1.4 5.2 2 1.2 2.3-.3-.5-.9-1.7-1.2-2.3zM296.8 171.7q.7-3.6 1.2-7.2l.3.6c-.3 2.2-.9 4.4-1.5 6.6zM197.6 170.2c-1.4-1.3.8-2.4 1.9-1.8-.5.5-1.5 1.4-1.9 1.8zM191.3 172.1c-2.3-1.3-.6-3.9 1.6-2.7q-.6 1.5-1.6 2.7zM187.2 178.5q-.2-2.1 1.8-2.8.3 2.1-1.8 2.8zM314.7 178.9q1.9-.7 3.9 0c-1.4 1-2.9 1.5-4.6 1.5.2-.4.6-1.1.7-1.5zM239.4 180.8c-1.4-1.9 1.5-2.5 2.6-1.3-.2.4-.5 1.2-.7 1.6-.4-.1-1.4-.2-1.9-.3zM235.3 182.1c-.2-1.8 1.6-2.8 3-1.7-.3.5-.8 1.4-1.1 1.9-.5-.1-1.5-.2-2-.2zM320.4 180.7c1.2-1 3.6.5 2.9 1.9-1.1 1-3.6-.5-2.9-1.9zM325.1 182.8c3.2-.3 6.3-1.4 9.2-2.6-4.2 5.3-9.8 9.3-16.4 11.1l6.4-4.8q.4-1.8.8-3.7zM301.8 182.6q1.6-.2 3.3-.4c-.3 1.6-2.5 2.4-3.6 1zM181.5 184.8q.8-1.9 2.8-1.5-.8 2.1-2.8 1.5zM319.2 183.7c2 .1.9 3.6-.8 2.7-1-.8-.4-2.6.8-2.7zM309.4 186.5c2.4-1.2 4.9-2.2 7.5-3.1 0 .9.1 2.6.1 3.5l-7.6-.4zM231.3 186.8c-1.9 2.8-3.7-1.1-.3-.7zM232 187.1c.4-.1 1.4-.2 1.9-.2l1 .5.2.8q-2 .5-3.1-1.1zM266 188.9l.8-.1q.8 2.1-1.3 2.6c.1-.6.3-1.9.5-2.5zM242.3 190.1l.8-.3c.2.6.7 1.9 1 2.5q-2-.2-1.8-2.2zM272.1 191.8c3.9-1.3 1.7 3.9-1.2 2.9q.5-1.5 1.2-2.9zM244.1 193.1l.5-.1q.8 1.7 2.6 2.1c-.1.4-.2 1.3-.3 1.7-1.8-.3-3.3-1.7-2.8-3.7zM260.4 192.8l.8-.3q1.4 1.7-.6 2.8c-.1-.7-.1-1.9-.1-2.5zM275.1 194.3c1.7-.1 1.6 2.7 0 2.6-1.7 0-1.6-2.7 0-2.6zM259.1 195.8c.3-.2 1.1-.4 1.5-.5-1.5.9-2.9 1.9-4.3 2.8-1.1-.1-3.2-.2-4.3-.3 1.2.9 2.7.3 3.8-.4q1.6-.9 3.3-1.7zM179.1 198.4c.3-1.3 1.9-2.6 3.2-2 .5 1.5-1.7 3.1-3 2.5zM241.2 206.2c7.5-2.8 15.3-5.4 21.9-10.3l-.4.6-2.4 3.2c-.2.2-.7.8-.9 1.1-2.9 1.3-5.9 2.3-8.4 4.3-3.4 2.6-3.5 8.3-8 9.8-4.1 1.6-8.5 4-13.1 2.9q-1.9-.6-3 1.1l-.5.4c-1.3.9-2.5 1.7-3.8 2.6l-1.5-4.5c6.2-1.7 12.8-2 19-3.7 1.4-2.2.8-5 1.1-7.5zM309.1 253.3c-3.5-17-.5-34.6-5.4-51.4 3.1 10.1 4.9 20.7 9.6 30.3-1.4.8-3.2 2-3.1 3.8q.1 3.2.3 6.4c.2 3 .5 6 1.2 8.9.1.4.3 1.1.4 1.5 1.4 5.4 1.3 11.1.3 16.5-1.5 4.1-4.3 7.5-7 10.8q1.1-5.7 2.7-11.2c.3-1.3.6-2.5.8-3.8.2-3.6.5-7.2.4-10.8zM274.9 202.7q3.3 1.1 6.6 2.5-3.6 1.2-7 2.6c.1-.5.1-1.6.2-2.1.1-.7.2-2.3.2-3zM205.4 207.8c1.9-1.2 3.7-2.4 5.8-3.4q-.3 1.9-.5 3.7c-.9.1-2.5.3-3.3.4-.5-.2-1.5-.5-2-.7zM220.2 204.3c1.5-.1 1.5 2.4 0 2.4s-1.5-2.4 0-2.4zM171.1 205h1.6c1.6 2.1-3.3 2.1-1.6 0z"/><path id="Layer" class="s0" d="M248.7 214.4c.9-3.4 3-6.3 5.5-8.7-1.1 3.3-3 6.3-5.5 8.7zM202.7 209.5l.9-.3c-1.7 1.9-3.9 3.3-6.1 4.6 1.3-1.1 2.5-2.4 3.8-3.6.4-.1 1.1-.5 1.4-.7zM206.7 212.1q1.9-.9 2.4 1.4-1.9.6-2.4-1.4zM214.7 215.9c-1.1-1-1.9-3.4.1-3.8q.6 1.9-.1 3.8zM188.7 218.2l.3-.2c-.6 1.9-1.6 4-3.7 4.4-.5-2.1 1.7-3.5 3.4-4.2zM201.4 218.7c2.8 2.3 5.5 4.7 8.3 7.1-2.9-2.2-5.7-4.5-8.3-7.1zM178 221.2c.5 0 1.4-.1 1.9-.2q-.3 1.5-1.1 2.8c-.3-.2-.9-.6-1.1-.8.1-.5.2-1.3.3-1.8zM194.1 220.7l.6.4c.5.3 1.6 1.1 2.1 1.4q1 .8 2 1.5.6 1.7 1.1 3.3c-2.2-2-4.2-4.2-5.8-6.6zM216 220.9c1.5-.1 3.8 1.7 2.4 3.2-1.5-.4-2.1-1.9-2.4-3.2zM181.4 222q1.5 1.3 3 2.7-2.6.6-5.2 1.1l-.3-1.3c1.6 1.1 3.4-.9 2.5-2.5z"/><path id="Layer" class="s0" d="M219.7 225.7q2.1-1.5 4-3.1l-4.5 9.6q-2.7-1.7-5.3-3.5l-1.4-4.6 4.2 1.6q0 1.2.1 2.5c.8 2.7 3.8-.7 2.9-2.5zM210.5 226.4q1.2.9 2.4 1.7c-5.1 3.3-11.2 4.1-16.9 2-.2 2.9.3 5.8 1.4 8.5l-3.8 4q.4-1.9.9-3.8c-3.6-1.7-7.4-3.7-9.4-7.4l.2-1.3c.5-.2 1.5-.5 2-.7q1.1 2 2.2 3.9c3-1.5 6-3.1 9.1-4.6 1.7.6 3.4 1.4 5.3 1.5 2.6-.3 4.5-2.3 6.6-3.8zM272.6 247.5c5.9-4.6 11.4-9.8 15.3-16.3q1.2 2.2 2.5 4.4 1.8-1.5 3.7-2.9l-.2.7c-.5 1.6-1 3.3-1.5 5-.6-.1-1.8-.1-2.4-.1-1.3.3-2.6.6-3.9 1.1-5.4 1.3-7 10.1-13.5 8.1zM206.9 237.9c3.4-1.2 7-1.8 10.5-2.6-1.7 1.1-3.5 2.2-5.4 2.9q-1.5-.5-2.7.5c-.6.3-1.7.9-2.3 1.2-1.2.6-2.3 1.2-3.3 2-.2-.3-.7-.9-1-1.2q1.4-1.1 2.8-2.1c.3-.2 1-.5 1.4-.7zM305.1 236.5c3.9.8-2.3 3.5 0 0zM268.6 255c3.4-2.2 6.9-4.2 10.4-6.3q-.3 1.9-.6 3.7l-.2 1c-2.7 2.6-6.2 3.5-9.6 1.6zM325.7 276.8c-1.3 3.1-3.5.2-1.3-1.4.3.3 1 1.1 1.3 1.4zM296.4 284.1q2.1-.6 1.5 1.5-2.2.6-1.5-1.5zM293.6 290.4q1.3-1.4 2.8-2.8c1.2 2.8 2.6 5.5 3.8 8.4q.8-.1 1.7-.2c.7-2.2 1.5-4.4 2.5-6.6 1.1 5.4.3 10.8-.6 16.2-.4-2-1.3-5.8-1.7-7.7q-1.1.7-2.1 1.6c-2.1 1.8-4 3.7-5.8 5.7q-1.8.1-2.5 1.8l-1.3 1.3c-.5-1.8-2.4-.5-2.5.8-.4.2-.9.7-1.2.9l.5-.6c1.9-2.4 4.5-4.9 4.2-8.2-.4-2.1-2-3.6-3.3-5.2 1.4-1.2 2.7-2.5 4-3.9.3-.3 1.1-1.1 1.4-1.5zM308.1 305.1q2 1 0 2-1.9-1 0-2zM330.2 305.3h.7c.2.6.5 1.9.6 2.5-.3.4-1 1.1-1.3 1.5-.1-.6-.4-1.7-.6-2.3.1-.4.4-1.3.6-1.7zM307.2 310.2c4-.9-.9 4 0 0zM304.5 312.3c1.3-.9 2.5 1.2 1.4 2-1.3.8-2.5-1.2-1.4-2zM309.6 311.5c2.8 5.8 6 11.6 7.8 17.8.1 3.3-2.6 5.9-3.9 8.8-.2-4.1.6-8.2.4-12.3 0-3.5-4-4.1-6.4-5.3-.4 2.2-.7 4.4-.9 6.5-.2-1.5-.3-3.1-.4-4.6q.1-1.8-1.7-2.3l-.1-.9c1.6-2.6 3.4-5.2 5.2-7.7zM265.2 325.9c.5-.2 1.5-.5 2-.7l-1.2 2c-.2-.3-.6-1-.8-1.3zM268.9 331.8c1.9.3 2.5 2.1 2.9 3.7-1.5-.6-3.5-1.8-2.8-3.7zM300.5 338.8c.7-.1 2-.3 2.6-.4a9.5 9.5 0 0 1-2.1 3.8c-.2-.6-.6-2-.9-2.6zM310.8 341.7c-.7-1.8.7-4.1 2.7-3.6l.1.7c-.3 1.4-1.3 2.7-2.8 2.9zM306.7 350.1c1-3 2.3-5.9 4.1-8.4-.9 3-2.4 5.7-4.1 8.4zM297.1 347.3q-.3-1.9 1.6-2.7.5 2.3-1.6 2.7zM305.3 354q.7-2 1.4-3.9-.9 2.4-1.6 5z"/><path id="Layer" class="s0" d="M297.6 367.2c3.1-4.1 5.4-8.6 7.7-13.2l-.2 1.1c-.1 1.8-.4 5.3-.6 7.1q-.4 1.8 1.3 2.8c1 3.9 2.1 7.8 3.2 11.7l.3 1.1.1.4c-3.8-.4-7.6-1-11.3-2.3.1.6.4 1.8.5 2.4l-.1-.7c-.1-.8-.3-2.5-.4-3.3-.1-.4-.2-1.3-.2-1.8.7.7 2.6 2 3.2.4-.3-1.8-2.5-1.4-3.7-1l-.7.2q.4-2.5.9-4.9zM311.3 414.9c3.1-.7 6.3-1.4 9.5-1.8 1.9.6 3.8 1.2 5.8 1.7q0 3.9.1 7.8c-2.3.1-4.6.1-6.8.4q-2 .1-1.6 2.2c-.5.2-1.5.7-2.1.9q-1.7.4-3.4.7.7-3.5 1.5-6.9 1.3 2 2.6 4.1c.6-2.8 1.3-5.5 2-8.2q-3.8-.1-7.6-.9zM309.1 415.4c-1.3 1.9-3.4-.4-1.2-1.5.3.4.9 1.1 1.2 1.5zM278.5 414.8q.5 2 1 3.9-1.2 1.4-2.2 2.8c.4-2.2.8-4.5 1.2-6.7zM269.9 417.7c1.7.3 3.7 1.6 3.1 3.7-1.6-.7-2.5-2.1-3.1-3.7zM305.1 428.1c.7-2.1 3.4-1.2 4.9-.8-1.5.7-3.2 1.5-4.9.8zM276.4 448.6c.2-1.6.4-3.8 2.3-4.3.6 1.9-1 3.3-2.3 4.3zM301.6 450.1c1.8.4 1.8 2.5 1.4 3.9-1.1-1-1.8-2.5-1.4-3.9zM293 452.2c1 .9 1.7 2.6.6 3.8h-.7c0-.8-.2-2.4-.2-3.1zM351.3 469.3l.1.2q.9 2.6 1.7 5.2c-.5.4-1.6 1.1-2.2 1.5q.2-3.5.4-6.9zM294.7 476.3q1.9.4 1.3 2.6h-.8c-.2-.7-.4-2-.5-2.6zM295.7 498.8c-.2-1.3-.1-3 1.3-3.6.6 1.3.2 3.2-1.3 3.6z"/></g><g id="#310902ff"><path id="Layer" class="s1" d="M284.8 84.6c3.4-.4 6.9-1 10.2.3l9 2.7c2.1.8 3.3 2.7 4.8 4.2q-1.1 1.8-.7 4c-.9 2.5-1.9 5-2.7 7.4q-2.1-.4-2.6 1.8c-1.3 3.3-2.4 6.6-3.3 10q-2 .3-3.9.7c1.2-4.5 2.6-9 4.3-13.4q-3.9-2.4-7.8-4.6l-.7-.4q-3.5-2-7.1-4l.4-4.6c-.9 1-1.9 1.9-2.8 2.8q.4-2.4.8-4.7 2.2.1 2.1-2.2zM217.8 85.1q2.5-.3 5.1-.7c1.1 1.1 2.5 1.8 4.1 1.9 1.3.6 3.4.7 3.8-1.1 7.6 1.8 4.6 10.7 3.6 16.4q-1.8-.5-2.8 1.2-1.3 1.5-.2 3.3-.5 2.2-.9 4.4c-1.4-4-3.2-7.9-5.9-11.2-2.9-2.4-7-3.3-9.6-6.2-.2-2 .3-4.1.6-6.1q-2.4.4-4.7.8c.2-.5.6-1.6.8-2.2.6-.2 1.9-.8 2.5-1.1q1.7 1.2 3.6.6zM211.4 94.2q2.1-.7 1.4 1.4-2 .6-1.4-1.4zM295 119.3c1.2-1 2.6-1.6 4-2.3l-.8 5c-2.1.1-3.2 2.5-2.6 4.3-.3-2.3-1.1-4.7-.6-7zM220.3 129.7c.4.1 1.3.4 1.7.5q2.8.4 5.5.9c-.2.6-.5 1.9-.7 2.5v4l-3.6-.4c-1-2.5-1.9-5-2.9-7.5zM242.9 136.1c.3-.3.8-.9 1.1-1.2.7 0 2.2-.1 3-.2 1.6.4 4.7 1.3 6.3 1.7l-10.4-.3zM243 148.7c1.4-2.9 3-5.6 4.7-8.3l.2 1.1q.5 3 .8 6l-.1 1c.2.6.6 2 .8 2.6-.2.5-.5 1.4-.7 1.9l-.3-.3q-.7-2.1-2.8-1.7c-.4.1-1.2.2-1.6.2l-.4-.4c-.2-.6-.5-1.6-.6-2.1zM325.2 156.5c.7-.3 2.1-.9 2.8-1.1q1.8 1.3 4.1.9c-5.1 4.5-11.2 7.4-17.2 10.4q3.8.7 7.7 1.4l.6 3.6q-2.1.6-4.3 1.3-1.9.5-3.8 1.1 1.1.6 2.2 1.1-1.3 1.8-2.6 3.7c-.1.4-.5 1.1-.7 1.5-3 .4-6 1.1-8.9 1.8-.4-2.1-3.3-1.6-3.3.4l-.3.6-.4.8c-.1-.7-.2-2.1-.3-2.8l-.1-.7q1.8-2.1 3.8-4.1c.4-.4 1.4-1.1 1.9-1.5 2.5-1.8 3.9-4.7 5.2-7.5q1.4-1.5.5-3.4l2-4.2c3.4-1.8 7.3-2.6 11.1-3.3zM213.2 174.7c2 .1.9 3.6-.8 2.7-1-.8-.3-2.6.8-2.7z"/><path id="Layer" fill-rule="evenodd" class="s1" d="M243.2 181.4c.4-.3 1.2-.8 1.5-1 2.2.5 4.4 1 6.6 1.3l4.2.8c2 .6 4 .2 5.7-.8.3 0 .7.1.9.1.7 1.1 1.4 2.1 2.2 3.2 1.1.7 2.3 1.4 3.4 2.2l.6.5c-.4.3-1.1.9-1.5 1.1l-.8.1q-2.4.3-1.3 2.7-1.7.4-3.5 1l-.8.2c-1.4 0-2.3 1.8-1.3 2.9q-1.7.8-3.3 1.7c-1.1-1-3.1-1-3.8.4q-1.7-.2-3.4-.5.5-1.7-1.4-2.2-.2-2.5-2.6-2.1l-.5.1v-.8c-.3-.7-.8-1.9-1-2.5.2-1.6-1.6-2.3-2.4-.9-.6-.4-1.8-1.2-2.3-1.6-.5-.2-1.6-.7-2.1-1 2.2-1.8 4.4-3.5 6.9-4.9zm16.9 5.9c-1.4-.1-1.7 2.4-.2 2.4 1.4.1 1.7-2.4.2-2.4z"/><path id="Layer" class="s1" d="M268.1 191.3q.1-2.1 2.2-2.5-.1 2.2-2.2 2.5zM264.7 194l3-2.4c.3 2.9.2 5.8-.5 8.6-.3.4-1 1.3-1.3 1.7-.6-2.6-.9-5.2-1.2-7.9zM279.3 191.9c2 3.6 3.7 7.4 4.9 11.3l-.6 1c-3.1-3.3-5.1-7.6-4.3-12.3zM302.1 195.2c1.7-.1 5.3-.2 7-.3 2.5 6.4 3.8 13.2 5.1 19.9 1.5 9.4 7.1 17.5 9 26.8 1 6-1 12.5 1.9 18.1 2.7 5.3 5.2 10.7 6.7 16.4 4.4 12 7.3 24.9 6.1 37.7.3 6.7-.5 14.5 4.5 19.8-.3 2.3-.7 4.6-1 7q1.5 1.7 2.9 3.4-1.4 3.3-2.7 6.6 2.7 1 5.3 2l-2.6 3.4c1.8.6 3.7 1.1 5.6 1.7l1.4.4c.2 4.1-.5 8.1-1.5 12-.8 5.3-.3 10.7-.6 16q-1-1.1-2.1-2.2c-.1-.7-.2-2.1-.3-2.8q.8-2-1-3.2c.1-.8.3-2.4.5-3.2q.4-2-1.6-2.5c.2-.6.4-1.8.5-2.4q.6-2.1-1.4-2.6l.4-2.4q.6-2.1-1.5-2.6c.2-.6.4-1.8.5-2.4q.6-2.1-1.4-2.7l.3-1.2c.5-1.3.2-3.1-1.2-3.8l.3-1.2q.6-2.1-1.5-2.6c.2-.9.4-2.7.6-3.6q.4-2-1.5-2.5c.1-.5.4-1.7.5-2.2q.5-2-1.4-2.9l-1-6q.8-2-1-3.2c0-.5.2-1.3.2-1.8q.7-2-1.1-3.2c-1.1-5-2.4-10.1-3.5-15.1-.1-.6-.5-1.9-.6-2.5q.8-1.8-.7-3.1c-.1-.3-.4-.9-.5-1.2l-.2-4c-.2-.8-.7-2.3-.9-3-.1-.6-.3-1.6-.4-2.2-.1-.7-.3-2.2-.3-2.9-.7-4.1-1.4-8.2-1.5-12.4q.3-2-1.6-1.8-.3-2.2-.7-4.3V266q.5-2-1.4-2.9c-.1-.6-.2-1.8-.3-2.3-.1-.5-.2-1.4-.3-1.8-.1-.4-.3-1.4-.4-1.9q1.1-1.8-.3-3.4l-.3-.9c-2.2-6.4-4.3-12.8-7-18.9-.2-.5-.6-1.3-.8-1.7-4.7-9.5-6.5-20.2-9.6-30.3-.2-.5-.4-1.6-.5-2.1q-.6-2.3-1.1-4.6zM271.9 197.9c.3-.5 1-1.5 1.4-2v1.6c.5 4.2-.4 8.5-2.2 12.3l-.4 1.1c-.9-4.3-1.3-9 1.2-13zM196 206.8c2.3-1.3 4.4-3.1 6.5-4.7-1.4 3-3.2 5.8-5.3 8.4q-.6-1.8-1.2-3.7zM178.8 208.6q1.6-2.9 3.3-5.6c.7.5 2.1 1.4 2.8 1.9-2.1 1.2-4.2 2.3-6.1 3.7zM260.7 215.7c.7-3.4 2.3-6.5 4.3-9.2.5 3.8-1.3 7.1-4.3 9.2zM174.3 209.8h3.5q.7 1.3 1.2 2.7c-.4.4-1.4 1.2-1.8 1.6l2.6 5q-1.2 1-2.5 1.9c-.4.2-1.1.7-1.5.9-.5-4.1-.9-8.1-1.5-12.1zM277.4 210.4c1.2-1.3 3.4.8 2 2-1.2 1.3-3.3-.8-2-2zM143 212c.5-.4 1.5-1.1 2-1.5.2 1.8.4 5.5.6 7.3q1.7-1.2 3.3-2.4.8 1.8 1.5 3.6-2.1-.3-2.5 2-1.8 1.5-3.7 2.9-1.6 1.1-3.1 2l-.2-.9c.4-1.8.7-3.9-.8-5.3l.5-.7q1.2-1.5-.1-2.8c1.6-.8 2.5-2.5 2.5-4.2zM154.9 219.2c3.6-3.5 7.2-6.9 11.5-9.4l1.1-.2.8 8.4c-1.9-.3-3.5 1.5-3.2 3.4l-7.2 2.6c0-1.9-2.4-1.2-2.7.2q-1.8.1-3.5.2.8-1.7 1.7-3.3.8-1 1.5-1.9zM278.4 216q2.9.9 5.8 1.9c-.4.7-1.3 2-1.8 2.7-1.4-1.4-2.7-3-4-4.6zM303.2 218.7c1.4-.9 2.4 1.6 1.1 2.4-1.4 1.1-2.4-1.6-1.1-2.4zM270 219l.3-.6c.5 2.5 1.2 4.9 2.1 7.3q-2.3 1-4.5 2c.5-2.9 1.2-5.8 2.1-8.7zM289.7 225.5l.8.1q1.9.2 3.9.3-1.9 2.7-3.9 5.4-.3-2-.5-3.9c-.1-.5-.2-1.4-.3-1.9zM177.7 231.3c2.7-1.1 5.4-2.1 8.1-3-.1.4-.4 1.3-.5 1.8l-.2 1.3c-.1.5-.2 1.5-.3 2-6.9 7.1-14.8 13.8-24.1 17.2-5.9.4-11.7 0-17.5-.3.3-.6.7-1.8.9-2.4.6 0 1.8-.1 2.5-.1l1.2-.4c1.7-.5 3.4-1 5.1-1.6q3.2-1.1 6.2-2.6l.6-.3c6.4-2.8 12.1-6.8 17.5-11.2zM231.7 236.3c2.3-2.7 4.9-5.2 7.6-7.5 0 4.4-3.5 6.8-7.6 7.5zM270.2 230.5c1.5-.1 1.4 2.4 0 2.4-1.5.1-1.4-2.3 0-2.4zM213.4 242.5c3.2-3.4 7-6.1 11-8.5-1.8 3-3.5 6.2-5.5 9.1q-1.5.6-2.9 1.3c-.7-.5-1.9-1.4-2.6-1.9zM292.4 239.1c1.3-1.1 2.8-2.1 4.3-2.9l-.4 1c-1.5 5.2-4 10.1-7.2 14.5.6-3.3.9-6.6 1.7-9.9q.8-1.4 1.6-2.7zM195.8 242.4c2.2-1.2 4.4-2.5 6.6-3.7 0 .6-.2 1.8-.3 2.4-1.9 1-4.1 1.4-6.3 1.3zM311.5 237.4c1.7 4.1 2.4 8.6 2.7 13-1.1-2.2-2.3-4.5-3.3-6.8-.1-.5-.2-1.5-.3-2q.4-2.1.9-4.2zM277.9 254.6c2.8-6.1 6-12 11.5-16-1.4 6.8-4.6 13-8.3 18.7q-1.9-.9-3.7-1.7zM203.7 241.9c1-.8 2.1-1.4 3.3-2 .7 2.1-1.8 3.8-3.3 2zM301.9 244.8q1.8-1 3.5-2c.9 3.1 1.9 6.2 2.8 9.3l.3.7c-1 1.3-.7 3 .2 4.2q.1 1.7.1 3.4c-3.5 3.7-5.7 8.4-7.7 13 .5 0 1.4.2 1.9.2q-.9 3.4-1.7 6.8c-2.2-8.2-2.5-16.9-2.6-25.4.1-.7.4-2.1.5-2.8 1-2.5 2-4.9 2.8-7.4zM294.6 258.3c.3-.2 1-.7 1.3-.9l-.4 13.6q-1.2 3.2-.1 6.3l-.1.9c-.5 1.4-.7 3-.3 4.5-.4 2.6-.9 5.1-1.5 7.7q-2.2.5-4.3 1-2.6-2.9-5.2-5.9c.6-4.2 1.3-8.4 2.1-12.6-1.4 2.5-2.8 4.9-4.3 7.3q1.2-4.5 2.5-8.9c.1-.7.3-1.9.4-2.5 2.1.8 4.4-1.1 3.2-3.3l2.4-2q1.7-.9 1.2-2.6c1.2-.7 2.2-1.6 3.1-2.6zM314.5 268.4q1 1.5 2.1 3c-1.5 3-3.6 5.6-5.8 8.2 1.5-3.7 2.8-7.4 3.7-11.2z"/><path id="Layer" class="s1" d="M312.9 298.1c2.7-8.1 2.1-17.6 7.7-24.6 3.6 12.3 5.9 25 6.4 37.9-3-2.4-6-4.9-8.7-7.6q.2 1.8.3 3.7c-2.2-2.9-4.7-5.9-5.7-9.4zM289 322.8c3.3-7.1 7.4-14.1 13-19.6.1.6.2 1.7.3 2.3-2.1 9.4-2.8 21.5-12.6 26.4-.6-2.9-1.9-6.1-.7-9.1zM326.9 331.2q2-.5 4-.9c3.1 6.3 3.4 13.6 2.3 20.5-2.2-2.1-5-4.1-5.7-7.3-.4-4.1-.4-8.2-.6-12.3z"/><path id="Layer" fill-rule="evenodd" class="s1" d="M312.2 369.5c-2.7-11 1.1-23 9.3-30.8 2.6 4.3 7.7 8.2 5.4 14-1.2 7.8-8.7 12.6-14.7 16.8z"/><path id="Layer" class="s1" d="M324.6 392.4c2.6-8.5 5.8-16.8 9.2-24.9 1.2 3.7 2.2 7.5 3.2 11.2q1.5-.9 2.9-1.8c2.3 10 5.4 20.5 2.8 30.8-.5 2-1.5 3.8-2.9 5.4-1.6-.6-3-1.5-4.5-2.4q-1.9 1.2-3.8 2.3l-2.8-5.4c-2-.5-5.2.3-5.8-2.4-1.1-3.9-1.4-8.1-2-12.1q1.8-.4 3.7-.7zM347.6 388.3q1.5-.8 2.9-1.5c.1 4.6.5 9.1.3 13.6l-1.6-3.8c-.1-.6-.2-1.8-.3-2.5q.8-2-.9-3.2c-.1-.7-.3-2-.4-2.6zM349.9 400.6c1.3 1.7 3 3.3 3.8 5.3-.1 2.6-1 5.1-1.7 7.6 3.4 1.1 9.8-.9 10.3 3.8.2 5.8-1.5 11.6-.5 17.4 1.1 2.3 3.2 3.9 4.4 6 1.4 3.1.8 7 3.1 9.7 3.2 3.5.9 8.4 1.9 12.5.2 3.6 4.6 3.8 7.2 5.1-.3 4-.1 8 .3 12l4.6-.6c-.6 5.6-1.3 11.2-2.2 16.7 1.7-.9 3.4-1.9 5-2.9l.6-.4c-1.4 6.4.2 13.5-3.7 19.2h-18.8l-1.2-5.8c.3-2.1-.1-4.5-2.4-5.1-1.1-5-2.5-10-3.8-15q.9-2-.8-3.3l.1-.9q.6-2.1-1.4-2.9c.2-.5.4-1.5.6-2 .7-1.5-.4-2.9-1.5-3.9v-.8c-.3-2.8-.5-5.6-.7-8.5 0-.4-.1-1.2-.1-1.7-.3-4.1-.5-8.2-.8-12.4-.2-3.1-.3-6.3-.5-9.4-.2-2.9-.3-5.7-.5-8.6l-.4-6.4c-.2-3.6-.3-7.1-.6-10.6-.1-2.8-.3-5.6-.4-8.4 0-1.9.1-3.8.1-5.7zM330.4 425.3c1.9 3 3.5 6.2 5 9.4q1-1.3 2.1-2.7-.3 3.1-.5 6.1.9-1.6 1.7-3.2c.7 2.1 1.4 4.1 2.1 6.2.8-2.4 2.3-7.3 3.1-9.7 1.9 4.7 3.1 9.6 4.3 14.6l.1.8c.1 5.1.1 10.2.4 15.3l.1.8c0 2.1.1 4.2.1 6.3v.8c-.2 1.6-.7 4.7-1 6.3-2.3-3.9-4.4-7.8-6.8-11.6 1.5 9.7 3.3 19.5 3 29.4-.1 3.1-2.7 5.2-4.5 7.4l-.2 7q-1.8-.4-3.6-.7c-1.3 1.5-2.7 2.9-4.2 4.2h-11.5c-4-14.8 1-29.8-1.3-44.7-3.6-15 4.3-29.4 11.6-42zM354.2 496.9c1.5 5.1 3 10.3 5.2 15.1h-8l.9-.4.9-.5c-.1-1.5-.3-4.7-.3-6.3 0-.7.1-2 .1-2.7 1.3-1.1 1.7-2.7 1.2-4.3z"/></g><g id="#a48366ff"><path id="Layer" class="s2" d="M211.7 85.6q.5-1.8 2.4-1.8l.1.7c-.6.3-1.9.9-2.5 1.1zM222.9 84.4c1.7-.4 3.4 0 5 .6-.2.3-.7 1-.9 1.3-1.6-.1-3-.8-4.1-1.9zM282.7 86.8q.2-2 2.1-2.2.1 2.3-2.1 2.2zM208.6 94q1.9.7 1.4 2.9-2-1-1.4-2.9zM281.6 94.6c0 1.9.1 3.7.1 5.6v1.2c0 .4-.1 1.3-.1 1.7v-8.5zM210.3 97.7c.6 1.8 1.4 3.5 2 5.3-.1.4-.1 1.1-.2 1.5-.5-2.3-1.2-4.6-1.9-6.8zM231.6 102.8q1-1.7 2.8-1.2-.6 2.1-2.8 1.2zM302.8 105q.5-2.2 2.6-1.8-.6 1.9-2.6 1.8zM231.4 106.1l.7-.5q-.3 6.3-.2 12.6c-.6-2.5-1-5.1-1.4-7.7q.4-2.2.9-4.4zM291.7 123l.3-.7q.4 2.3.8 4.5-1.4-.1-2.7-.3c.1-.3.4-1 .6-1.3q.6-1.1 1-2.2zM234.7 126q2.2-.3 2.7 1.7-2.1.4-2.7-1.7zM237.6 128.4c1.1 1.8 2.3 3.5 3.5 5.2-1 1.3.3 2.9 1.8 2.5l10.4.3q-1.7.1-3.4.3l2.8 3.4q-2.5.1-5 .3l-3.2-2.8q.2 2.3.3 4.7c-1.2-1.6-2.5-3.1-3.6-4.7q-1.1-1.7-2.2-3.3c-.6-2-1-3.9-1.4-5.9z"/><path id="Layer" class="s2" d="M243.8 134.2q1.7-.9 3.2.5c-.8.1-2.3.2-3 .2zM254 136.6c-.4-3.2 3.5-3.5 2.4-.2-.2.2-.8.5-1.1.6-.3-.1-1-.3-1.3-.4zM286.6 135.4c.9.2 2.7.4 3.6.6-1.7 1.6-3.5 3.1-5.4 4.6l1.4-3.8c.1-.3.3-1 .4-1.4zM291.7 140.1q-.5-2.1 1.4-3.2.5 2.1-1.4 3.2zM239 139.5l.7-.4 1.5-.7c-.1 2-.4 4.1-.6 6.2q-.8-2.6-1.6-5.1zM284.4 142.2c1.5-1.8 3.6 1.3 1 1.3-.3-.3-.8-1-1-1.3zM247.9 141.5q1.7.9 3.3 1.8-.5.7-1 1.5-.8 1.3-1.5 2.7-.3-3-.8-6zM291.9 150.2c-.1-2.8-.2-5.6-.2-8.4l.2 8.4zM240.6 145.3q1.3 1.6 2.4 3.4c.1.5.4 1.5.6 2.1-1.9-1.7-3.6-3.6-5.2-5.5h2.2z"/><path id="Layer" fill-rule="evenodd" class="s2" d="m285.9 144.4 1.8 1.8-1.8 6.6c2.1.5 4.1 1 6.2 1.6-.1-.7-.1-2-.2-2.6 1.9 2.1 3.7 4.3 5.3 6.7-.6-.1-1.7-.4-2.3-.6-2.1 1.2-4.1 2.7-6.1 4.2l-.7.5q-2.5.2-5 .3c2 6.8 3.9 13.6 4.8 20.7-2.4-4.4-4.5-8.8-6.4-13.4q-1.2 2.7-2.3 5.4c-1.7-3.3-2.3-7.1.6-9.9.3-.4.8-1.3 1.1-1.7l.3-.6c.1-2.4.2-4.7.1-7.1 1.2-3.8 2.8-7.4 4.3-11.1zm-1.8 11c-1.8.1-2 3.3-.1 3.4 1.8-.1 2-3.3.1-3.4zm-5.9 13.8q-.8 2.4 1.6 1.6.8-2.4-1.6-1.6z"/><path id="Layer" class="s2" d="M248.6 148.5q1.9.4 1.6 2.5l-.8.1c-.2-.6-.6-2-.8-2.6zM252.4 149c.6-.1 1.8-.2 2.4-.2 2.4 2.9-2.9 3.4-2.4.2zM244 151.2c.4 0 1.2-.1 1.6-.2q.7 2 2.8 1.7l.4.3q1.6.8 1.8-1.3c.7 1.4 1.4 2.7 2.1 4.1-.3.2-.8.5-1 .7-2.7-1.5-5.4-3.2-7.7-5.3zM328.1 154.8c1.7.1 3.3.4 4.9.8-.2.1-.7.5-.9.7q-2.3.4-4.1-.9zM334.1 155.4c.7-.2 2.1-.4 2.8-.5-5 7.9-12.4 13.9-16.7 22.3q-.7-2.1-1.3-4.2 2.2-.7 4.3-1.3l-.6-3.6q-.4-1.5-.7-3.1c4.5-2.6 8.7-5.8 12.2-9.6zM298 163.8q1-1.2 2.5-1.8c.4.1 1.1.2 1.4.3l.2.6c-1.2.9-2.3 1.9-3.8 2.2l-.3-.6zM311.6 167.4q-1.2-1.9.5-3.4.9 1.9-.5 3.4zM214 168.2c2.3.2 4.6.5 6.9.7 1.5 8.1-7.9 12.6-13.9 15.5-.6-.3-1.9-.9-2.6-1.3 2.1-.9 4.2-1.8 6.2-2.8 3.1-2.2 5.9-4.7 8.4-7.5q-3.2-1.3-6.3-2.5c.3-.5 1-1.6 1.3-2.1zM305.1 170.1q2 1 0 2-1.9-1 0-2zM302.5 172.5q1.9 1.2 3.9 2.4c-.5.4-1.5 1.1-1.9 1.5l-4.2 1.6q.2 1.3.4 2.5l.1.7q-1.6 1.4-.5 3-1.7.3-3.3.7-.5-5.6-.8-11.2v-.9c.6.4 1.7 1.1 2.3 1.5l-.4 2.8q2.3-2.3 4.4-4.6zM257.1 178.8c5.1-.4 10.6-.6 14.8 3l-5 1.8.8 3.6c-1.2-.8-2.3-1.5-3.4-2.2q.9-1.4 1.9-2.7c-1.1-.1-3.1-.4-4.1-.5-.2 0-.7-.1-.9-.1-1.8-1.1-4.4-1.3-5.7.8q.8-1.9 1.6-3.7zM241.3 181.1c.2-.4.5-1.2.7-1.6q1.4.3 2.7.9c-.3.2-1.1.7-1.5 1-.4-.1-1.4-.3-1.9-.3zM235.3 182.1c.4 0 1.4.1 1.9.2q-.7 1.7-2.5 1.2l-.1-.8zM292.9 181.1c2.5 4 3.8 8.5 5.6 12.7-2.3-1.1-4.8-2-6.3-4.2-.4-2.9.3-5.7.7-8.5z"/><path id="Layer" fill-rule="evenodd" class="s2" d="m268.3 187.7 6.4-4.6c.5.3 1.6.9 2.1 1.2l-.4 6c1.2-.2 2.6-.4 3.8-.7-2 3-4 6.5-3.2 10.2 1.2 2.3 3.3 3.9 5.1 5.6 1.7 1.6 3.2 3.4 4.7 5.1.8-2.6 1-5.8 3.6-7.4 3.8-2.4 8.2-5.5 12.8-3.3.1.5.3 1.6.5 2.1 4.9 16.8 1.9 34.4 5.4 51.4l-.7-.5-.2-.7c-.7-3.5-1.2-7.1-1.7-10.7l-3.8.8c-.1-7.9-4.1-15.2-1.9-23.3.3 4.7.7 9.4 1.5 14 1.6-4.2 2.9-8.5 3.6-12.9-.6-3.8-1.8-7.4-2.8-11q-1.3 4.1-2.2 8.2.5-6.4.5-12.9c-4.4 13.1-1.3 27.4-4.6 40.7-6.1 10.5-17.5 19.3-30.1 19.1-7.3-1.9-11-9.4-14.5-15.4.6.8 1.6 2.7 2.9 1.8.8-1.8-1.8-2.5-3.1-2.3-.3-.5-.8-1.6-1.1-2.1 2.1-1.2.7-4.5-1.5-3q-.6-1-1.3-2c2.6-.2 5.3-.4 7.9-.8 11.3-.3 20.9-6.7 30.3-12.2q2.5-2.3 4.6-5c-.2.9-.3 1.9-.5 2.5l-.7-.1c0 .5.2 1.4.3 1.9l-1.2 4.4q1.8.6 3.5 1.3c1.7-3.4 2.8-7.2 3.2-11q-1.9-.1-3.8-.1c4.4-6.3 7.1-13.8 8.4-21.4-2.8 4.8-4.6 10.2-7.5 15-1.7.5-3.5.5-5.2.5-.9 2.6-1.7 5.1-2.5 7.6.2-5.4 3.3-13.8-3.2-16.5-8-1.9-5 9.6-5.1 14.3-.7-4-1.5-7.9-2.2-11.9-3.8 2.6-7.4 5.4-10.8 8.4q-.3 0-.6-.1c1.7-1.9 3.5-3.9 4.7-6.2 0-4.1-2.7-7.1-4.8-10.3q1.7 1.1 3.3 2.2c-.1-.4-.2-1.2-.3-1.7.3-.4 1-1.3 1.3-1.7 1.3-1.8 2.6-3.6 3.7-5.5 2.9 1.1 5.1-4.2 1.2-2.9 1-2.2 2.2-4.4 3.3-6.7q-2.5 1.9-5.1 3.8-2.1.3-2.2 2.5c-.1 0-.3.2-.4.2l-3 2.4-.6.5q.7-1.5 1.4-3.1 2.1-.5 1.3-2.6c.4-.2 1.1-.8 1.5-1.1zm16.7-3.1q1.9 2.9 3.9 5.7-.4-3.3-.8-6.5c2 4.1 3.9 8.5 7.1 11.8l.7.6q-2.9 2.5-5.7 5.1-1.2-1.2-2.3-2.5c-1.3 2.3-2.9 4.4-5 6l.7-.6.6-.9c3.6-4.7-1.6-9.6-3.4-13.9 2.2-.6 4-1.8 4.2-4.8zm-4.2 4.8-.6.2.4-.6.2.4zm-36.1 29.8c-7.2 4.1-13 10.1-19.5 15.1-2.6-.9-5.3.2-7.8 1-3.5.8-7.1 1.4-10.5 2.6.6-3.7-4.5-1.3-1.4.7q-1.4 1-2.8 2.1l-.6.4c.1-.6.3-1.8.3-2.4.1-.6.2-1.9.3-2.5-2.4 2-4.6 4.1-6.9 6.2-1.2.9-2.6 1.7-3.8 2.5.4-3.4-3.7-1-.6.4l-.8-.1-3.6-.4q1.5-2.4 3.1-4.7c-2.1-1.9-4.2-4-5.3-6.7.1-.5.2-1.5.3-2 2 3.7 5.8 5.7 9.4 7.4q-.5 1.9-.9 3.8l3.8-4c-1.1-2.7-1.6-5.6-1.4-8.5 5.7 2.1 11.8 1.3 16.9-2 .2.2.8.5 1 .6q2.6 1.8 5.2 3.5c1.6-3.2 3-6.4 4.6-9.6l2.7-3.3.5-.4q2.2.9 3-1.1c4.6 1.1 9-1.3 13.1-2.9 4.5-1.5 4.6-7.2 8-9.8 2.5-2 5.5-3 8.4-4.3-3.4 5.2-6.7 10.6-8.8 16.5q3.1-1.5 6.3-3.1c.2.3.7.9 1 1.2 1.2.9 2.4 1.7 3.7 2.3-5.6-.6-11.4.2-16.9 1.5zm16.9-1.5 1.4.2q-.2.1-.3.3-.5-.2-1.1-.5zm25.6-24.9c-1.2.9 0 3.3 1.4 2.6 1.2-.9 0-3.3-1.4-2.6zm-12.1 1.5c-1.6-.1-1.7 2.6 0 2.6 1.6.1 1.7-2.7 0-2.6zm17 .8q-1.9 1 0 2 2-1 0-2zm-20.2 2.8c-1.4 1.6-3.3 3-3.8 5.2.1 2.8 1.5 5.3 2.6 7.8l.4-1.1c.8-.2 2.4-.7 3.2-.9l.4-3.2c-.1.5-.1 1.6-.2 2.1q3.4-1.4 6.9-2.6-3.2-1.4-6.5-2.5c-.1-1.9-.9-3.5-1.6-5.2l-.1-1.6c-.3.5-1 1.5-1.3 2zm-23.2 16.5c2.5-2.4 4.4-5.4 5.5-8.7-2.5 2.4-4.6 5.3-5.5 8.7zm39.4-.8c1.6-2.5 2.5-5.3 2.9-8.2-1.6 2.5-2.4 5.3-2.9 8.2zm3 1.9c1.9-2.8 3.2-6 3.9-9.2-2.7 2.3-3.5 5.8-3.9 9.2zm5.3 9.2c1.6-3.2 1.9-6.8 1.2-10.2-.5 3.3-.9 6.8-1.2 10.2zm-4.7-2.7q-.4.6-.8 1.1c0-.4.1-.8.2-1.1h.6zm-64.6 1.9q-.9 3.3-1.8 6.7 2.1-2.5 4.1-5.2c-.6-.3-1.7-1.1-2.3-1.5zm67.7 10.2-.9-.7.2-.7q-1.9 1.4-3.7 2.9-1.3-2.2-2.5-4.4c-3.9 6.5-9.4 11.7-15.3 16.3 6.5 2 8.1-6.8 13.5-8.1-4.4 2.9-6.4 8.2-7.7 13q.3-1.8.6-3.7c-3.5 2.1-7 4.1-10.4 6.3 3.4 1.9 6.9 1 9.6-1.6l-.3 1.2-.5 1-.8-.4q-.4 2.1-.7 4.3c4.9-1.2 10.6-3.3 13.2-7.8 4.6-3.5 7.7-8.5 7.2-14.5l.4-1 .3-.2c-.2-.2-.7-.6-.9-.8q.6-3.8.8-7.6c-.8 2.1-1.6 4.3-2.1 6.5zm-25 5.5q1.5-.1 3.1-.1.5 2 .9 4c2.4-1.6 4.6-3.4 6.9-5.2q-.7-1.4-1.4-2.9l2.6-3c-4.4 1.8-8.3 4.5-12.1 7.2zm-71.2-5.4c-1.5 2 3.3 2.6 3.1.5-.5-1.1-2.2-1.2-3.1-.5zm53.1 7.2c2.9 5.7 8 11.6 15 11.2 1.3-.9 2.3-1.9 3.3-3-6.6-1.4-12-5.9-18.3-8.2zm4.7 10.9c3.8 3.3 7.1 8.7 13.2 6.6-3.9-3-8.5-5-13.2-6.6z"/><path id="Layer" class="s2" d="M232 187.1q.7-1.7 2.6-1.9c-.2.4-.5 1.3-.7 1.7-.5 0-1.5.1-1.9.2z"/><path id="Layer" fill-rule="evenodd" class="s2" d="M207.8 195.1c6.8.3 12.5-3.9 16.5-9-.6 6.9-3 14.2-9.9 17-1.1.5-2.2.9-3.2 1.3-2.1 1-3.9 2.2-5.8 3.4-.3-.2-.9-.5-1.2-.6l-.8-.4c1.9-1.6 4.1-3 5.3-5.2 0-1.5-.7-2.9-1.4-4.3-2.9-.2-5.5 1.6-7.7 3.3-5.5 4.1-8.5 10.6-13 15.8-2.1 1.5-.6 2.7 1.1 2.3-1.5.7-2.8 2-2.4 3.7q.2 1.8.5 3.5c-2 .8-4.1 1.8-6 2.9l-.6-3q2.6-.5 5.2-1.1-1.5-1.4-3-2.7c-.4-.2-1.1-.7-1.5-1 .6-2.8.2-5.8-.9-8.5q-.5-1.4-1.2-2.7h.3c.7 0 2.3.1 3.1.1 11.6 1.5 15.2-15.2 26.6-14.8zm-20.1 23.6q.5-.3 1-.5-.5.4-1 .5zm-6.4-7q1.1 3.1 2.1 6.3 1.2-2.5 2.5-5-2.3-.6-4.6-1.3z"/><path id="Layer" class="s2" d="M169.8 197q5.4-5.3 10.8-10.4-.8 1.2-1.6 2.5c-2.6 3.2-6.1 5.4-9.2 7.9zM234.9 187.4c.4-.3 1-.8 1.4-1.1.5.3 1.5.8 2.1 1q-1.6.9-3.3.9zM240.7 188.9c.8-1.4 2.6-.7 2.4.9l-.8.3-1.6-1.2zM247.2 195.1q1.9.5 1.4 2.2c-.4-.1-1.3-.4-1.7-.5.1-.4.2-1.3.3-1.7zM311.2 195.6c2.7 2.8 3.2 6.7 3.3 10.5-1.1-3.5-2.3-7-3.3-10.5zM260.3 199.7l2.4-3.2c-1.5 6.3-3 12.7-4.8 18.9-.3-.3-.8-.9-1-1.2.7-4.9 2-9.8 3.4-14.5zM184.1 201.2q2.1-.3 4.2-.7c-.8 1.5-1.7 2.9-2.8 4.1l-1.4-3.4zM153.7 207c.1-1.7 2-2.3 3.4-1.7l-.2.7q-1.5.9-3.2 1zM314.7 206.7c2.2 3.9 5.1 8.5 2.4 12.9-1.4-4.2-1.6-8.6-2.4-12.9zM137.6 212.8c.7-2.2 2.9-3.1 5-3.4-1.1 1.8-2.7 3.6-5 3.4zM265 224.4c.6-3.7 3.3-6.2 6.2-8.2-.2.5-.7 1.6-.9 2.2l-.3.6c-1.6 1.8-3.4 3.5-5 5.4zM272 218.3c2.3-.8 3.4 3.1 1.7 4.3q-1-2.1-1.7-4.3zM450.3 722.1c3.5 6.2 6.9 12.7 8.7 19.8 1.4 7.2.8 15.1 4.3 21.9 3.8 7.9 5.7 16.6 8.9 24.8 2.2 6.6 2.6 13.7 3.3 20.6.5 4.3-.6 8.5-1.6 12.6q2.4.8 4.8 1.7-1.9 3.3-3.7 6.7c2.2 1.8 4.8 3.4 6.2 5.9-.2 1.7-.9 3.3-1.4 4.8q1.6 2.1 3.1 4.1-2.4 2.8-4.8 5.5c6.3 1.8 10.4 7.4 11.2 13.7-.6 6.1-3.3 11.9-3.1 18.2-.6 8.4 1.9 17.5 8.6 23.1l-5.6 7.8q5.3 1.1 10.5 2.2c.8 6.8-3.2 14.5 1 20.8 4 7.2 5.4 15.4 8.1 23.2 5.2 10.5 9.6 21.4 12.2 32.9 2.2 6.2 4 13.1 1.7 19.5 1.3.7 2.7 1.4 4.1 2.1h-8.6c4.6-5.9 1.5-13.4 2.3-20l-.8.8-.6.4c-.6-.1-2-.2-2.7-.3.8-4.1 2.2-8.6.2-12.6-2.1-4.1-4.1-8.2-4.8-12.8-.5-3.7-4.9-4.9-5.8-8.4-1.8-6-2-12.3-4.3-18.1-1.4-4-6.3-6.1-5.2-10.9-.4-4.7 1.1-9.2.9-13.8-.7-4.8-7.3-2.7-10.8-3.9 1.5-2.6 3.2-5.1 4.8-7.7-4.4-3.8-6.6-9.5-6.8-15.2-.8-9.2.8-18.2 2.4-27.2.7-2.1-1.1-3.3-2.7-4.2l-1.4-.4c-.4-1.8-.6-3.7-.9-5.5q-2-.9-4-1.7c1.6-6-.8-11.8-.7-17.8q-2.3-2.5-4.6-4.9 1.3-2.7 2.7-5.4-1.5-.9-3-1.9c1-7.5 1.3-15.1.5-22.7-2.9-17.7-13.3-33.3-14.9-51.3 0-9.5-5.3-17.5-7.7-26.4zM276.8 222.6q3.4.7 6.8 1.2-3.3.3-6.5.8c-.1-.5-.3-1.5-.3-2zM175.8 224.4c.4-.4 1.4-1.1 1.9-1.5.2.3.8.7 1.1.9l.1.7q-1.3.8-2.9 1.2c0-.4-.2-1-.2-1.3zM252.5 225.3c.8-1.3 2.5-1.4 3.9-1.2-.9 1.1-2.5 2.3-3.9 1.2zM258.1 224c2.4-.3 2.2 2.7 1.4 4.1-.7-1.3-1.5-2.6-1.4-4.1zM274.4 224.5c.9 3.2-.3 6.3-2.2 8.8q1.3-4.3 2.2-8.8zM216.8 228.2c.6-1.2 1.8-1.8 2.9-2.5.9 1.8-2.1 5.2-2.9 2.5zM244.2 236.1c1.2-4.3 4.9-7.1 7.8-10.3-2.6 4-6.8 7.8-6.1 12.9q-.9-1.1-1.8-2.1zM186.6 228.1c.2.3.6 1 .7 1.3-.5.2-1.5.5-2 .7.1-.5.4-1.3.5-1.8zM227.5 234.1c2.9-1.9 5.8-4 8.9-5.8-3 1.9-5.9 3.9-8.9 5.8z"/><path id="Layer" class="s2" d="m243.8 228.1 1 .1c-1.2 2.5-2.6 5-4 7.4 0 .4.1 1.4.1 1.8 1.3 1.4 2.6 2.6 4 3.8-4.7 1.4-9.5 2.4-14.4 3q1-1.1 2-2.1c3.2 0 6.5-.5 9.7-1q-1.2-1.6-2.5-3.2c-2.1 1.1-4.4 2.2-6.5 3.4.5-.6 1.6-1.9 2.2-2.5-.9.2-2.5.7-3.4 1 4.8-3 9.5-6.4 11.8-11.7zM261 235.9c.2-2.5 1-4.8 1.9-7.1l.4 6.4q2.2.9 4.3 1.7-3.4-.1-6.6-1zM257.5 233.3c-1.4-1.4.1-3.1 1.6-3.5q-.1 2.1-1.6 3.5zM313.3 232.2c.2.4.6 1.3.8 1.7-1.1 1.1-2.5 1.6-3.9 2.1-.1-1.8 1.7-3 3.1-3.8zM268.1 236.1c.5-1.2 1.6-1.7 2.7-2.1.9 1.5-1.5 3.4-2.7 2.1zM231.2 240.1c-3.4 1.3-3.8-3.1-4.8-5.2l4.8 5.2zM209.3 238.7q1.2-1 2.7-.5l-.2.8c-.5.1-1.7.3-2.2.4zM225.7 237.5c.2 1.1.2 2.4-.6 3.3-.4 0-1.1.1-1.5.2-.3-1.5.9-2.8 2.1-3.5zM290 238.3c.6 0 1.8 0 2.4.1v.7q-.8 1.3-1.6 2.7-1.1-1.6-.8-3.5zM247.2 240.1c.5-1.6 2.8-1.5 3.3.1l-2.8.4zM206.2 247.8c1-2.6 2.2-5.2 3.2-7.8-.6 3-1.1 6.1-1.6 9.2-6.7.7-13.4.2-20.1-.1q2.6-.4 5.2-.9c1.6.2 3.1.6 4.7.4 2.9-.2 5.7-.5 8.6-.8z"/><path id="Layer" class="s2" d="M209.8 246.8c.6-2.4 1.3-4.7 1.8-7q-.2 3.2-.4 6.5 2.4-.9 4.8-1.9 1.4-.7 2.9-1.4 2.3-1 4.7-2c-.2.3-.5 1-.7 1.3-1.2 1.6-2.6 3.1-3.9 4.7-3.1.1-6.1-.1-9.2-.2zM225.8 243.3c.3-.3.9-.9 1.3-1.2q1.2 1.2 2.4 2.5l-6.6 1.6 5.4-2.7c-.6-.1-1.9-.2-2.5-.2zM310.5 242.4l.1-.8c.1.5.2 1.5.3 2 .2 2.5.4 5.1.8 7.7-.7-2.9-1-5.9-1.2-8.9zM195.6 246.3c1.8-1 3.6-2 5.5-2.7.3.1.8.3 1.1.5q-2.1 2-4.2 4.1c-.6-.8-1.4-1.6-2.4-1.9zM183.4 246.3q.2-2 2.4-1.7-.3 2.1-2.4 1.7zM190.6 245.2l.8.1c-.7 1.3-1.8 2.3-3.3 2.3q.4-2.1 2.5-2.4zM175 247.9c.3-.6.7-1.9.9-2.5 2.2.2 4.4.6 6.6.9-1.5.4-4.4 1.1-5.8 1.5-.5 0-1.3.1-1.7.1zM128.7 247.2c.7 0 2-.1 2.6-.1.3.3.7 1 .9 1.3-1.2.2-3.2.4-3.5-1.2zM162.3 253.3c3-1.9 5.5-4.3 8.3-6.4 1.2.9 2.5 1.8 3.8 2.6-5.6-.9-9.1 4.1-13.1 6.9q-1.8-.3-3.6-.5 2.4-1.2 4.6-2.7zM176.1 249.6c1.7.1 5.1.2 6.8.3-.5.5-1.5 1.4-2 1.9-1.2-.6-3.6-1.7-4.8-2.2zM297.8 255q-.4-1.9 1.4-2.8c-.1.7-.4 2.1-.5 2.8z"/><path id="Layer" fill-rule="evenodd" class="s2" d="M313.1 259.4q4-1.7 8-3.6l.3.9q-1.2 1.8.3 3.4c.1.5.3 1.5.4 1.9-2.2.3-1.4 3.9.3 1.8.1.5.2 1.7.3 2.3v.7c-.1 2.9 0 5.8.2 8.7.3-.5.9-1.6 1.2-2.1q.4 2.1.7 4.3l-.4.7c-2.2 1.6 0 4.5 1.3 1.4l.7-.3c.1 4.2.8 8.3 1.5 12.4-1.6.6-1.3 2.8.3 2.9.1.6.3 1.7.4 2.2-.2.8-.6 2.2-.9 3.3-2.3-8-3.3-16.2-6.1-24-1-3.2-4.2-4.5-6.9-6l-.2 1.1c-1 3.8-2.2 7.5-3.7 11.2-8.2 15.1.7 31.2 5.7 45.7 3.3-1.2 7.7-1 9.7-4.1 1.9-6.7 1.9-13.8 2.3-20.7q.5 3.2 1.1 6.5c.1.6.5 1.8.6 2.3.3-.4 1-1.1 1.3-1.5 1.1 5 2.4 10.1 3.5 15.1q-.7 2.1 1.1 3.2c0 .5-.2 1.3-.2 1.8q-.7 2 1 3.2l1 6q-.5 2.2 1.4 2.9c-.1.5-.4 1.7-.5 2.2q-.6 2.1 1.5 2.5c-.2.9-.4 2.7-.6 3.6q-.4 2 1.5 2.6l-.3 1.2c-.5 1.4-.2 3.1 1.2 3.8l-.3 1.2q-.6 2.1 1.4 2.7c-.1.6-.3 1.8-.5 2.4q-.5 2.1 1.5 2.6l-.4 2.4q-.6 2.1 1.4 2.6c-.1.6-.3 1.8-.5 2.4q-.5 2.1 1.6 2.5c-.2.8-.4 2.4-.5 3.2q-.7 2 1 3.2c.1.7.2 2.1.3 2.8q.2 2.2.5 4.4c.1.6.3 1.9.4 2.6q-.8 2 .9 3.2c.1.7.2 1.9.3 2.5.2 3.2.4 6.5.6 9.7.1 2.8.3 5.6.4 8.4.2 3.5.3 7.1.6 10.6l.4 6.4c.1 2.8.3 5.8.5 8.6.2 3.1.3 6.3.5 9.4.2 4.2.5 8.3.8 12.4 0 .5.1 1.3.1 1.7.2 2.8.4 5.7.7 8.5v.8c-.2 1.4-.2 3.4 1.5 3.9-.2.5-.4 1.5-.6 2.1q-.5 1.9 1.4 2.9l-.1.8q-.8 2 .8 3.3c1.3 5 2.7 10 3.8 15 .1 1.9 1 3.7 2.4 5.1l1.2 5.8h-3.7c-2.3-7.1-4.1-14.3-6.4-21.4 0 1.6.1 4.7.1 6.3v.9c-1.3 1-1.7 2.7-1.2 4.3 0 .7-.1 2-.1 2.7-.2 1.7-.5 5.1-.6 6.7l-.9.5h-12.8c7.5-12.6 8.9-27.7 10.3-42v-.7c.1-2.2 0-4.3-.2-6.4v-.8c-.2-5.1 0-10.2-.5-15.3v-.8c-.7-6.2-1.5-12.3-2.6-18.4-7.5-.1-14.8-1.7-22.1-3.5q-1.6-.4-3.1-.7l-.5-.4c2.2-.3 4.5-.3 6.8-.4q-.1-3.9-.1-7.8c-2-.5-3.9-1.1-5.8-1.7-.4-.1-1.3-.4-1.7-.5.8 0 2.5 0 3.3.1 7.4-.1 16.5 4.5 22.6-1.7 3.2-15.9-2.5-31.9-5.3-47.5q-3.1-.3-6.1-.7-.3-1.6-.5-3.2l-.2-6c.3-.2 1-.7 1.3-1 .5-.3 1.5-1 2-1.3-.3-8.7-2.2-17.3-4.4-25.7-3.2 3.3-5.8 7.1-8.8 10.5-1.8 2.2-4.9.8-7.3.8q-1 1.3-2 2.8l-.1-.9-.1-.7c1.3-2.9 4-5.5 3.9-8.8-1.8-6.2-5-12-7.8-17.8-1.8 2.5-3.6 5.1-5.2 7.8-.5-4.7-1.4-9.2-2.1-13.8-.1-.6-.2-1.7-.3-2.2q-.1-1.6-.3-3.2c-2.2 1.6-4.5 3.2-6.6 4.8 1.6-1.8 3.3-3.8 4.9-5.6q1-.9 2.1-1.6c.4 1.9 1.3 5.7 1.7 7.7.9-5.4 1.7-10.8.6-16.2-1 2.2-1.8 4.4-2.5 6.6q-.9.1-1.7.2c-1.2-2.9-2.6-5.6-3.8-8.4q-1.5 1.4-2.9 2.8c.6-2.6 1.1-5.1 1.5-7.7.4-.2 1-.7 1.3-1 2.1.5 2.4-2.4.1-2-.2-.4-.8-1.1-1-1.5v-.9c1.6-1.8 1.5-4.4.1-6.3l.4-13.6c-.1-.4-.2-1.2-.3-1.6h1.2q.6 1.1 1.2 2.3c.8 8-1.4 17 3.2 24.2 3.4-3.8 4.7-8.9 6.9-13.4q-1.6 5.5-2.7 11.2c2.7-3.3 5.5-6.7 7-10.8 1-5.4 1.1-11.1-.3-16.4q.5 1.7 1 3.5zm14.6 40.9q.1.3.2.7-.3.2-.5.3.1-.4.3-1zm1.8-.3.2 4c-.3-.4-1.1-1.3-1.4-1.7q-.2-.6-.4-1.3c.5-.3 1.2-.8 1.6-1zm-33.1-12.8q-.7 2 1.5 1.4.6-2.1-1.5-1.4zm11.7 20.9q-1.9 1 0 2 2-1 0-2zm-3.6 7.2c-1.1.8.1 2.8 1.4 2 1.1-.8-.1-2.9-1.4-2zm46.8 151.5c-1.2 1.5-.6 3.8 0 5.5q-.2 3.4-.4 6.9c.6-.4 1.7-1.1 2.2-1.5q-.8-2.6-1.7-5.2c1-1.5 1.7-4.8-.1-5.7z"/><path id="Layer" class="s2" d="M309.3 254.3c.1 3.6-.2 7.2-.4 10.8q0-2.3-.1-4.7 0-1.7-.1-3.4c.1-.6.5-2 .6-2.7zM290.7 260.7c.4-1.8 2.1-3.1 3.9-2.4-.9 1-1.9 1.9-3.1 2.6zM257 261.2c4.5 2.2 8.7 4.9 13 7.4 4.4-2.2 8.8-4.4 13.4-6.1-2.3 5.5-6 12.8-13.2 11.5-5.6-2.1-9.5-6.7-13.5-10.9.1-.5.2-1.4.3-1.9zM284.9 268.4c1.2-2.3 3.2-3.8 5.5-4.9q-1.3 1-2.5 2-1.6 1.3-3 2.9zM323.3 265.9l.8.1v3q-1.6-1.3-.8-3.1zM282.1 272.1c0-1.6 1.1-2.9 2.6-3.3-.1.6-.3 1.8-.4 2.5-.5.2-1.7.6-2.3.7zM278 276.7c.4-2 1.9-3.4 3.9-3.9-.2 2.1-1.9 3.7-3.8 4.3zM287.1 296.7l5-4.8c-1.3 1.4-2.6 2.7-4 3.9zM330.2 302.2q1.5 1.3.7 3.1h-.7v-3.1zM291.7 306.8q.7-1.7 2.5-1.8v.9c-.6.2-1.9.7-2.5.9zM261.2 319l.7.3c.1.6.2 2 .2 2.6q-2-.8-.9-2.9zM304.5 320.1q1.8.5 1.7 2.3l-.7.4c-.2-.7-.7-2-1-2.7zM304.8 332.1c-.3-1.7-.1-3.9 1.8-4.5.4 1.8-.5 3.4-1.8 4.5zM296.7 372.1l.7-.2.5.6c0 .5.2 1.4.2 1.8q-2.1-.1-1.4-2.2zM263.1 489.9q1.7 1.2.9 3.3-1.7-1.3-.9-3.3z"/></g><g id="#713514ff"><path id="Layer" class="s3" d="M214.1 83.8c1.4-.3 3 0 3.7 1.3q-1.9.6-3.6-.6zM227.9 85c.7 0 2.1.1 2.9.2-.4 1.8-2.5 1.7-3.8 1.1.2-.3.7-1 .9-1.3zM295 84.9c3 .8 6 1.8 9 2.7l-9-2.7z"/><path id="Layer" fill-rule="evenodd" class="s3" d="M210.9 87.8q2.3-.4 4.7-.8c-.3 2-.8 4.1-.6 6.1 2.6 2.9 6.7 3.7 9.6 6.2 2.7 3.3 4.5 7.2 5.9 11.2.4 2.6.8 5.2 1.4 7.7.5 2.7 1.7 5.3 2.8 7.8q.6 2.1 2.6 1.7l.3.7c.4 2 .8 3.9 1.4 5.9-4.3-5.8-8.9-11.5-11.3-18.4-1.9-5.3-2.6-11-3.7-16.5-3.4-.5-7.1-1.3-10.1.9-.4.7-1.2 2.1-1.6 2.7-.6-1.8-1.4-3.5-2.1-5.3l-.2-.8q.5-2.2-1.4-2.9 1.1-3.1 2.3-6.2zm.5 6.4q-.6 2 1.4 1.4.7-2.1-1.4-1.4z"/><path id="Layer" class="s3" d="M281.9 91.5c.9-.9 1.9-1.8 2.8-2.8l-.4 4.6q3.6 2 7.1 4c-3.2 1-6.5 1.8-9.7 2.9 0-1.9-.1-3.7-.1-5.6 0-1 .1-2.1.3-3.1zM308.8 91.8c1.6 1.2.5 3.2-.7 4q-.4-2.2.7-4zM292.1 97.7q3.9 2.2 7.8 4.6c-1.7 4.4-3.1 8.9-4.4 13.4q2-.4 4-.7c-.1.5-.4 1.5-.5 2-1.4.7-2.8 1.3-4 2.3-.5 2.3.3 4.7.6 7-.7 3.6-1.6 7.1-2.6 10.6q-1.8 1.1-1.3 3.2v1.7c0 2.8.1 5.6.2 8.4v1.6c.1.6.1 1.9.2 2.6-2.1-.6-4.1-1.1-6.2-1.6.6-2.2 1.2-4.4 1.7-6.6-.4-.5-1.3-1.4-1.7-1.8l-.5-.9c2.6 0 .5-3.1-1-1.3l-.4.2c.2-.5.6-1.4.8-1.8 1.9-1.4 3.7-3 5.4-4.6-.9-.2-2.7-.4-3.6-.6.9-3 1.9-6.1 3.4-8.9q1.4.2 2.7.3-.3-2.2-.7-4.5c1.7-6.1 3.1-12.2 5.3-18.1-1.7-2.2-3.4-4.4-5.2-6.5zM231.4 106.1q-1.1-1.8.2-3.3c.1.7.3 2.1.5 2.8z"/><path id="Layer" class="s3" d="M295.6 126.3c-.6-1.8.5-4.2 2.6-4.3 0 1.8-1.2 3.3-2.6 4.3zM219.2 129.8l.8-.8.3.7 3 7.5q1.7.2 3.5.4l.7.1c.2.5.7 1.7.9 2.2.9 2.4 1.9 4.8 2.8 7.2l-6-7.2q-1.4 1.3-2.8 2.7c-1.9-4-5.1-8.2-3.2-12.8zM227.5 131.1l.6.1c1.4 1 .4 3.2-1.3 2.4.2-.6.5-1.9.7-2.5zM242.9 136.1c-1.5.4-2.8-1.2-1.8-2.5.7.2 2 .4 2.7.6l.2.7c-.3.3-.8.9-1.1 1.2zM241.2 137.6c1.1 1.6 2.4 3.1 3.6 4.7q-.1-2.4-.3-4.7l3.2 2.8c-1.7 2.7-3.3 5.4-4.7 8.3q-1.1-1.8-2.4-3.4v-.7c.2-2.1.5-4.2.6-6.2zM245.6 151q2.1-.4 2.8 1.7-2.1.3-2.8-1.7zM249.4 151.1l.8-.1.4.7q-.2 2.1-1.9 1.2c.2-.4.5-1.3.7-1.8zM284.1 155.4c1.9.1 1.7 3.3-.1 3.3-1.9 0-1.7-3.2.1-3.3zM333.1 155.6l1-.2c-3.5 3.9-7.7 7-12.2 9.6q.3 1.6.7 3.1-3.9-.7-7.7-1.4c5.9-3 12.1-5.9 17.2-10.4.2-.2.7-.6.9-.7zM298.6 159.1c1.8-.7 2.8 1.8 3.3 3.2-.4-.1-1-.2-1.4-.3-.8-.7-2.6-1.6-1.9-2.9zM278.2 169.2q2.4-.8 1.6 1.6-2.4.8-1.6-1.6z"/><path id="Layer" fill-rule="evenodd" class="s3" d="M207.7 179.3c1.6-3 3.2-6.1 5-9q3.1 1.2 6.3 2.5c-2.5 2.8-5.3 5.3-8.4 7.5q-1.5-.5-2.9-1zm5.5-4.7c-1.1.2-1.8 2-.8 2.7 1.7 1 2.8-2.6.8-2.7z"/><path id="Layer" class="s3" d="M315.1 174.1q1.9-.6 3.8-1.1.6 2.1 1.3 4.2c-.3.3-.8 1-1.1 1.4l-.5.3q-2-.7-3.9 0 1.3-1.9 2.6-3.7-1.1-.5-2.2-1.1zM300.3 178l4.2-1.6q-2 2-3.8 4.1-.2-1.2-.4-2.5zM238.3 180.4l1.1.4c.5.1 1.5.2 1.9.3.5 0 1.5.2 1.9.3-2.5 1.4-4.7 3.1-6.9 4.9-.4.3-1 .8-1.4 1.1l-1-.5c.2-.4.5-1.3.7-1.7 0-.4.1-1.3.1-1.7q1.8.5 2.5-1.3c.3-.4.8-1.3 1.1-1.8zM255.5 182.5c1.3-2.1 3.9-1.9 5.7-.8-1.7 1-3.8 1.5-5.7.8zM300.3 184.2q-1.1-1.6.5-3c.1.7.2 2.1.3 2.8zM301.8 182.6c0-2 2.9-2.5 3.3-.4q-1.7.2-3.3.4zM262.1 181.8c1 .1 3 .4 4.1.5q-1 1.3-1.9 2.7c-.8-1.1-1.5-2.1-2.2-3.2zM270.3 188.8q2.6-1.8 5.1-3.7c-1.1 2.3-2.3 4.5-3.3 6.7q-.7 1.4-1.2 2.9c-1.1 1.9-2.4 3.7-3.7 5.5.7-2.8.8-5.7.5-8.6.1 0 .3-.2.4-.3q2.1-.3 2.2-2.5zM260.1 187.3c1.5 0 1.2 2.5-.2 2.4-1.5 0-1.2-2.5.2-2.4zM264.7 191.6q-1.1-2.4 1.3-2.7c-.2.6-.4 1.9-.5 2.5zM277.1 199.8c-1-3.9 1.3-7.7 3.5-10.8 1.7 4.3 7.3 9.5 3.6 14.2-1.2-3.9-2.9-7.7-4.9-11.3-.8 4.7 1.2 9 4.3 12.3l-.7.6-.8.6c-1.8-1.7-3.9-3.3-5.1-5.6zM287.2 192.8c1.4-.7 2.6 1.7 1.4 2.5-1.4.8-2.6-1.6-1.4-2.5zM244.6 193q2.4-.4 2.6 2.1-1.8-.4-2.6-2.1zM259.1 195.8c-1.1-1.2-.1-3 1.3-3 .1.6.1 1.8.2 2.5-.4.1-1.2.3-1.5.4z"/><path id="Layer" fill-rule="evenodd" class="s3" d="m264.1 194.5.6-.5c.3 2.7.5 5.3 1.2 7.9.1.5.2 1.3.3 1.7q-1.6-1.1-3.3-2.2c2.1 3.2 4.8 6.2 4.8 10.3-1.2 2.4-3.2 4.5-5 6.5-1.8-.6-3.3-1.6-4.8-2.8 1.8-6.2 3.3-12.6 4.8-18.9l.4-.6c.3-.3.8-1.1 1-1.4zm-3.4 21.2c3-2.1 4.8-5.4 4.3-9.2-2 2.7-3.6 5.8-4.3 9.2z"/><path id="Layer" class="s3" d="M292.1 195.1q2 1 0 2-1.9-1 0-2zM309.1 194.9c.6.2 1.6.5 2.1.7 1 3.5 2.2 7 3.3 10.5l.2.6c.8 4.3 1 8.7 2.4 12.9l.2.5c2.4 8.9 7.6 16.9 7.7 26.4 1.6 18 12 33.6 14.9 51.3.8 7.6.5 15.2-.5 22.8q1.4.9 2.9 1.8l-2.6 5.4q2.3 2.4 4.6 4.9c-.1 6 2.3 11.8.7 17.8q2 .8 4 1.7c.3 1.8.5 3.7.9 5.5-1.9-.6-3.8-1.1-5.6-1.7l2.6-3.4q-2.6-1-5.3-2 1.3-3.3 2.7-6.6-1.4-1.7-2.9-3.4c.3-2.4.7-4.7 1-7-5-5.3-4.2-13.1-4.5-19.8 1.2-12.8-1.7-25.7-6.1-37.7-1.5-5.7-4-11.1-6.7-16.4-2.9-5.6-.9-12.1-1.9-18.1-1.9-9.3-7.5-17.4-9-26.9-1.3-6.6-2.6-13.4-5.1-19.8z"/><path id="Layer" fill-rule="evenodd" class="s3" d="M199.6 200.6c2.3-1.7 4.8-3.5 7.7-3.3.7 1.4 1.4 2.8 1.4 4.3-1.2 2.2-3.4 3.6-5.3 5.2q-2.1 1.1-.7 2.7c-.3.2-1 .6-1.4.7-2.5 1.3-4.8 2.8-7 4.5l-.6.1c-1.8.1-3.8.6-4.4 2.5l-.3.7-2.4-1.6c4.5-5.2 7.5-11.7 13-15.8zm-3.6 6.3 1.2 3.6c2.1-2.6 3.9-5.4 5.3-8.4-2.1 1.7-4.2 3.4-6.5 4.8z"/><path id="Layer" class="s3" d="M252 197.8c.7-1.4 2.7-1.4 3.8-.4-1.1.7-2.6 1.3-3.8.4zM268.1 203.1c.5-2.2 2.4-3.6 3.8-5.2-2.5 4-2.1 8.7-1.2 13-1.1-2.5-2.5-5-2.6-7.8zM273.3 197.5c.7 1.7 1.5 3.3 1.6 5.2 0 .7-.2 2.3-.2 3l-.4 3.2c-.8.2-2.4.7-3.2.9 1.8-3.8 2.7-8.1 2.2-12.3zM259.4 200.8c.2-.3.7-.9.9-1.2-1.3 4.8-2.7 9.6-3.4 14.6q-3.2 1.5-6.3 3c2.1-5.8 5.4-11.2 8.8-16.4zM180.9 201.6l3.2-.4 1.4 3.4-.6.3c-.7-.5-2.1-1.4-2.8-1.9q-1.7 2.7-3.3 5.6l-.7 1.2h-3.8c.6 4 1 8 1.5 12.1-4.8 4-10.8 7.3-17.2 5.8q7.9-3 15.5-6.5c-.3-4.3-.8-8.6-.9-12.9l.9.1c2.2.8 2.8-2 2.8-3.6l.8-.8c1.4-.1 3.3-.7 3.2-2.4zM161.2 206.1q1.9.1 3.7.4c.2.2.6.7.9.9-3.1.7-6.2 1.5-9.2 2.4q2.3-1.9 4.6-3.7zM288.1 213.6c.4-2.9 1.3-5.7 2.9-8.2-.4 2.9-1.3 5.7-2.9 8.2z"/><path id="Layer" fill-rule="evenodd" class="s3" d="M276.6 221.5c.1-4.7-2.9-16.2 5.1-14.3 6.5 2.7 3.4 11.1 3.2 16.5l-1.3.1q-3.4-.5-6.8-1.2zm.7-11.2c-1.3 1.3.8 3.4 2.1 2.1 1.3-1.3-.8-3.4-2.1-2.1zm1.1 5.6c1.3 1.6 2.5 3.2 4 4.7.4-.7 1.3-2.1 1.8-2.8q-2.9-1-5.8-1.9z"/><path id="Layer" class="s3" d="M291.1 215.5c.4-3.4 1.2-6.9 3.9-9.3-.7 3.3-2 6.5-3.9 9.3zM144.6 208.9l1.2-.3c.1 1.9.1 5.6.1 7.5l2.6-4 .6.7 2 3q-.3 1.6-.7 3.2-.7-1.8-1.5-3.6-1.6 1.2-3.3 2.4c-.2-1.8-.4-5.5-.6-7.3l-.4-1.6zM154.9 219.2c2.8-4.2 5.7-9.6 11.5-9.4-4.3 2.5-7.9 5.9-11.5 9.4z"/><path id="Layer" fill-rule="evenodd" class="s3" d="M303.1 209c1 3.6 2.2 7.2 2.8 11-.7 4.4-2 8.7-3.6 12.9-.8-4.6-1.2-9.3-1.5-14 0-.4.1-1.3.1-1.7q.9-4.1 2.2-8.2zm.1 9.7c-1.3.7-.3 3.5 1.1 2.4 1.3-.8.3-3.3-1.1-2.4z"/><path id="Layer" class="s3" d="M167.5 209.6c.6 1.9 1.1 3.8 1.4 5.8-.1.6-.4 2-.6 2.6l-.8-8.4zM181.3 211.7q2.3.7 4.6 1.3-1.3 2.5-2.5 5-1-3.2-2.1-6.3zM177.2 214.1c.5-.4 1.4-1.2 1.8-1.6 1.1 2.7 1.5 5.7.9 8.5-.5.1-1.4.2-1.9.2l-.7-.2q1.3-.9 2.5-1.9l-2.6-5zM296.4 224.7c.3-3.4.7-6.9 1.3-10.2.6 3.4.3 7-1.3 10.2zM139.8 216.4l.7-.2q1.3 1.3.1 2.8c-.3-.4-.8-1.3-1.1-1.7z"/><path id="Layer" fill-rule="evenodd" class="s3" d="M271.2 216.2c.2.5.6 1.6.8 2.1q.7 2.2 1.7 4.3c.1.5.5 1.4.7 1.9q-.9 4.5-2.2 8.8c-.4.2-1.1.6-1.4.7-1.1.4-2.2.9-2.7 2.1l-.5.8q-2.1-.8-4.3-1.7l-.4-6.4c.5-1.6 1.2-3.1 2.1-4.4 1.6-1.9 3.4-3.6 5-5.4-.9 2.9-1.5 5.8-2.1 8.7q2.2-1 4.5-2c-.9-2.4-1.6-4.8-2.1-7.3.2-.6.7-1.7.9-2.2zm-1 14.3c-1.4.1-1.5 2.5 0 2.4 1.4 0 1.5-2.5 0-2.4z"/><path id="Layer" class="s3" d="M165.1 221.4c-.3-1.9 1.3-3.7 3.3-3.4-.2 1.7-1.6 3-3.3 3.4zM147.9 221q.4-2.3 2.5-2-.4 1.9-2.5 2zM140.1 219.7c1.5 1.4 1.2 3.5.8 5.3-1-1.6-1.7-3.5-.8-5.3zM149.9 223.4c1.2-.8 2.3-1.5 3.5-2.3q-.9 1.6-1.7 3.2c-.4.1-1 .1-1.4.1-.5 0-1.5.1-2 .1.4-.3 1.2-.8 1.6-1.1zM291.1 222q2.2 0 4.4.1c-.4 3.8-1.5 7.6-3.2 11q-1.7-.7-3.5-1.4.6-2.1 1.2-4.3.2 1.9.5 3.9 2-2.7 3.9-5.4-2-.1-4-.3c.2-.9.5-2.7.6-3.6zM155.2 224.2c.3-1.4 2.7-2.1 2.7-.2-.7.1-2.1.2-2.7.2zM227.1 223.9c.6.4 1.8 1.2 2.3 1.5q-2 2.7-4.1 5.2.9-3.4 1.8-6.7zM256.4 224.1c.4 0 1.2-.1 1.7-.1-.1 1.5.7 2.8 1.4 4.1-.1.5-.3 1.3-.4 1.7-1.5.4-3 2.1-1.6 3.5.4.6 1.3 1.9 1.7 2.5-2.8 1.7-5.7 3.2-8.7 4.4-.5-1.6-2.8-1.7-3.3-.1-.3-.4-1-1.1-1.3-1.4-.7-5.1 3.5-8.9 6.1-12.8l.5-.6c1.4 1.1 3-.1 3.9-1.2zM179.8 228.8c1.9-1.1 4-2.1 6-2.9.2.5.6 1.6.8 2.2l-.8.2c-2.7.9-5.4 1.9-8.1 3l.6-.4c.3-.4.9-1.2 1.2-1.7z"/><path id="Layer" fill-rule="evenodd" class="s3" d="M236.4 228.3c2.3-1.3 5-.5 7.4-.2-2.3 5.3-7 8.7-11.8 11.7l-.8.3-4.8-5.2 1.1-.8c3-1.9 5.9-3.9 8.9-5.8zm-4.7 8c4.1-.7 7.6-3.1 7.6-7.5-2.7 2.3-5.3 4.8-7.6 7.5z"/><path id="Layer" class="s3" d="M294.8 234.1c.5-2.3 1.3-4.4 2.1-6.5q-.2 3.8-.8 7.6c-.3-.3-1-.8-1.3-1.1zM159.7 242.9c4.9-5.1 11.3-8.1 17.5-11.2-5.4 4.4-11.1 8.4-17.5 11.2z"/><path id="Layer" class="s3" d="M160.7 250.6c9.3-3.4 17.2-10.1 24.1-17.2 1.1 2.7 3.2 4.8 5.3 6.7q-1.6 2.3-3.1 4.7l-1.2-.2q-2.2-.3-2.4 1.7h-.9c-2.2-.3-4.4-.7-6.6-.9-1.8.3-3.6.8-5.3 1.5-2.8 2.1-5.3 4.5-8.3 6.4-8.2 2-16.4-.8-23.9-4.2.8-.2 2.3-.5 3-.7.7-.1 2-.4 2.7-.5-.2.6-.7 1.8-.9 2.4 5.8.3 11.6.7 17.5.3zM217.4 235.3c2.5-.8 5.2-1.9 7.8-1 .1.8.3 2.4.5 3.2-1.2.7-2.4 2-2.1 3.5q-2.4 1-4.7 2c2-2.9 3.7-6 5.5-9-4 2.4-7.8 5-11 8.5.7.5 1.9 1.4 2.6 1.9q-2.4 1-4.8 1.9.2-3.3.4-6.5l.2-.8.2-.8c1.9-.7 3.7-1.8 5.4-2.9zM269.8 239.6c3.8-2.7 7.7-5.4 12.1-7.2l-2.6 3q.7 1.5 1.4 2.9c-2.3 1.8-4.5 3.6-6.9 5.2q-.4-2-.9-4-1.6 0-3.1.1zM198.6 234.2c.9-.7 2.6-.6 3.1.5.2 2.1-4.6 1.5-3.1-.5zM293.9 233.4l.9.7c.3.3 1 .8 1.3 1.1.2.2.7.6.9.8l-.3.1c-1.5.9-3 1.9-4.3 3v-.7c.5-1.7 1-3.4 1.5-5zM314.1 233.9c2.7 6.1 4.8 12.5 7 18.9q-4 1.9-8 3.6l-1-3.6c-.1-.4-.3-1.1-.4-1.5-.4-2.6-.6-5.2-.8-7.7 1 2.3 2.2 4.6 3.3 6.8-.3-4.4-1-8.9-2.7-13q-.5 2.1-.9 4.2l-.1.8q-.2-3.2-.3-6.4c1.4-.5 2.8-1.1 3.9-2.1zM205.5 238.6c-3.1-2 2-4.4 1.4-.7-.4.2-1.1.5-1.4.7zM195.8 242.4c2.3-2.1 4.5-4.2 6.9-6.2-.1.6-.2 1.9-.3 2.5-2.2 1.2-4.4 2.5-6.6 3.7zM233.2 241.3c2.1-1.2 4.4-2.3 6.6-3.4l2.4 3.2c-3.2.5-6.4 1-9.7 1zM286.1 239.4c1.3-.5 2.6-.8 3.9-1.1q-.3 1.9.8 3.5c-.8 3.3-1.1 6.6-1.7 9.9-2.6 4.5-8.3 6.6-13.2 7.8q.3-2.2.7-4.3l.8.4q1.8.8 3.7 1.7c3.7-5.7 6.9-11.9 8.3-18.7-5.5 4-8.7 9.9-11.5 16l.3-1.2.2-1c1.3-4.8 3.3-10.1 7.7-13z"/><path id="Layer" class="s3" d="M289.1 251.7c3.2-4.4 5.7-9.3 7.2-14.5.5 6-2.6 11-7.2 14.5zM207 239.9c.6-.3 1.7-.9 2.3-1.3l.3.8-.2.6c-1 2.6-2.2 5.2-3.2 7.8-2.9.3-5.7.6-8.6.8l.4-.4q2.1-2.1 4.2-4.1 1.1-.9 1.5-2.2c1.5 1.8 4 .1 3.3-2zM195.8 242.4c2.2.1 4.4-.3 6.3-1.3-.2.6-.7 1.9-1 2.5-1.9.7-3.7 1.7-5.5 2.7q-1.4.8-2.7 1.9-2.6.5-5.2.9l-4.8.8c-1.7-.1-5.1-.3-6.8-.3l-.9-.1q3.5-.6 7-1.1c1.9-.3 3.9-.6 5.9-.8 1.5 0 2.6-1 3.3-2.3l.6-.4c1.2-.8 2.6-1.6 3.8-2.5zM302.7 242.2l3.8-.8c.5 3.6 1 7.2 1.7 10.7-.9-3.1-1.9-6.2-2.8-9.3q-1.7 1-3.5 2c.2-.6.6-2 .8-2.6zM249.4 243.1c2.3-1.5 3.7 1.8 1.5 3q-.7-1.5-1.5-3zM251.7 241.4c6.3 2.3 11.7 6.8 18.4 8.2-1.1 1.1-2.1 2.1-3.4 3-7 .4-12.1-5.5-15-11.2zM152.9 245.8q3.1-1.2 6.2-2.6-3 1.5-6.2 2.6zM222.9 242.3c.7.2 2.2.7 2.9 1 .6 0 1.9.1 2.5.2l-5.4 2.7q-1.9.5-3.9.8c1.3-1.6 2.7-3.1 3.9-4.7zM252 248.2c1.3-.2 3.9.5 3.1 2.3-1.3.9-2.3-1-2.9-1.8zM256.4 252.3c4.7 1.6 9.3 3.6 13.3 6.6-6.2 2.1-9.5-3.3-13.3-6.6zM308.4 252.8l.7.5.2 1c-.1.7-.5 2.1-.6 2.7-.9-1.2-1.2-2.9-.2-4.2zM321.4 253.7q1.4 1.6.3 3.4-1.5-1.6-.3-3.4zM297.8 255h.9c.1 8.5.4 17.2 2.6 25.4q.8-3.4 1.7-6.8c-.5 0-1.5-.2-1.9-.2 2-4.6 4.2-9.3 7.7-13q.1 2.4.1 4.7c-.2 1.3-.5 2.5-.8 3.8-2.2 4.5-3.5 9.6-6.9 13.4-4.6-7.2-2.4-16.2-3.2-24.2-.1-.8-.1-2.3-.2-3.1zM294.6 258.3q-1.1-2.1 1-2.5c.1.4.2 1.2.3 1.6-.3.2-1 .7-1.3.9zM290.7 260.7l.8.2q.5 1.7-1.1 2.6c.1-.7.2-2.1.3-2.8zM322.7 263.1q1.9.9 1.4 2.9l-.8-.1c-.1-.5-.5-1.6-.6-2.1zM284.9 268.4q1.4-1.6 3-2.9c1.2 2.2-1.1 4.2-3.2 3.3z"/><path id="Layer" fill-rule="evenodd" class="s3" d="M314.7 267.3c2.7 1.5 5.9 2.8 6.9 6 3.1 8.4 4 17.5 6.7 26l.2 1.2c-.4 6.9-.4 14-2.3 20.7-2 3.1-6.4 2.9-9.6 4.1-5.1-14.5-14-30.6-5.8-45.7 2.2-2.6 4.3-5.2 5.8-8.2q-1.1-1.5-2.1-3zm-1.8 30.7c1.1 3.6 3.5 6.5 5.7 9.4l-.2-3.6c2.7 2.7 5.6 5.2 8.6 7.5-.5-12.8-2.7-25.6-6.4-37.9-5.6 7-5 16.5-7.7 24.6z"/><path id="Layer" class="s3" d="M282.1 272.1c.5-.2 1.7-.6 2.3-.8q-1.4 4.4-2.5 8.9c1.4-2.4 2.8-4.8 4.2-7.3-.8 4.2-1.5 8.4-2.1 12.6q2.6 3 5.2 5.9 2.1-.5 4.3-1c-.3.4-1.1 1.1-1.4 1.5l-5 4.8-2.4 2c-5.2-6-5.2-14.3-6.6-21.6 1.9-.6 3.6-2.2 3.8-4.3zM295.4 277.3q-1.1-3.1.1-6.3c1.4 1.9 1.5 4.5-.1 6.3zM324.8 274.7q1.9-.2 1.6 1.8l-.7.3c-.3-.3-1-1.1-1.3-1.4zM295 282.7c-.4-1.5-.2-3.1.4-4.5.2.4.8 1.1 1 1.5 0 .5 0 1.5-.1 2-.3.3-.9.8-1.3 1zM295.1 304.9c2.1-1.6 4.4-3.2 6.6-4.8q.2 1.6.3 3.2c-5.6 5.4-9.7 12.4-13 19.5-1.2 3 .1 6.2.7 9.1 9.8-4.9 10.5-17 12.6-26.4.7 4.6 1.6 9.1 2.1 13.8l.1.8c.3.7.8 2 1 2.7-5.2 4.9-9.4 11-15.6 14.8-3-4.1-6.9-8.5-6-14 2.9-5.5 6.2-10.8 7.8-16.8.6-.2 1.9-.7 2.5-.9.2-.3.7-.7.9-1zM335 322.9q1.8 1.2 1.1 3.3-1.8-1.2-1.1-3.3z"/><path id="Layer" fill-rule="evenodd" class="s3" d="M323 336.1c1.3-1.5 2.6-3.1 3.9-4.8.2 4.1.2 8.2.6 12.2.7 3.2 3.5 5.2 5.7 7.3 1.1-6.9.8-14.2-2.3-20.6l-3.8 1c1.5-1.9 3-3.8 4.7-5.6 2.2 8.4 4.1 17 4.4 25.7-.5.3-1.5 1-2 1.3q-1.3-.1-2.7-.1c-.7 1.3-1.4 2.6-2.2 3.9-.3.4-.9 1.3-1.2 1.7-5.4 7.2-12.7 12.4-19.1 18.6-1.1-3.9-2.2-7.8-3.2-11.7-.1-.8-.4-2.3-.5-3 2.9-7.4 5.8-14.8 8.4-22.3q1-1.5 2-2.8c2.4 0 5.5 1.4 7.3-.8zm4.1-4.9q-.1 0-.2.1v-.1h.2zm-14.9 38.3c6-4.2 13.5-9 14.7-16.8 2.3-5.8-2.8-9.7-5.4-14-8.2 7.8-12 19.8-9.3 30.8z"/><path id="Layer" class="s3" d="M335.9 327.9q1.8 1.2 1 3.2-1.7-1.2-1-3.2zM337.9 337.1q1.9.9 1.4 2.9-1.9-.7-1.4-2.9zM320.2 341.2c4-.9-.9 4 0 0zM338.8 342.2q1.9.5 1.5 2.5-2.1-.4-1.5-2.5zM339.8 348.3q2 .5 1.4 2.6-1.9-.6-1.5-2.6zM340.9 352.1c1.4.7 1.8 2.4 1.2 3.8-1.4-.7-1.7-2.5-1.2-3.8zM341.8 357.1q2 .6 1.4 2.6-2-.5-1.4-2.6zM351.3 358.1c1.6.9 3.4 2.1 2.7 4.2-1.6 9-3.2 18-2.4 27.2.2 5.7 2.3 11.4 6.8 15.2-1.6 2.6-3.3 5.1-4.8 7.7 3.5 1.2 10.1-.9 10.8 3.9.2 4.6-1.3 9.1-1 13.8-1 4.8 3.9 6.9 5.3 10.9 2.2 5.8 2.5 12.1 4.3 18.1.9 3.5 5.3 4.7 5.8 8.4.6 4.6 2.7 8.7 4.8 12.8 2 4 .6 8.5-.2 12.6.7.1 2.1.2 2.7.3-1.6 1-3.3 2-5 2.9.9-5.5 1.6-11.1 2.2-16.7l-4.6.6c-.4-4-.6-8-.3-12-2.6-1.3-7-1.5-7.2-5.2-1-4 1.3-8.9-1.9-12.4-2.3-2.7-1.7-6.6-3.1-9.7-1.2-2.1-3.3-3.7-4.4-6-1-5.8.7-11.6.5-17.4-.6-4.7-6.9-2.7-10.3-3.8.6-2.5 1.6-5 1.7-7.6-.8-2-2.5-3.6-3.8-5.3 0 1.9-.1 3.8-.1 5.7-.2-3.2-.4-6.5-.6-9.7l1.6 3.8c.2-4.5-.2-9.1-.3-13.6q-1.4.7-2.9 1.5-.3-2.2-.5-4.4 1.1 1.1 2.1 2.2c.3-5.3-.2-10.7.6-16 1-3.9 1.7-7.9 1.5-12zM342.8 362.2q2 .5 1.4 2.6-2-.5-1.5-2.6z"/><path id="Layer" fill-rule="evenodd" class="s3" d="M321.4 386.4c4.7-7.5 9.3-15.1 12.2-23.6q3 .4 6.1.7c2.8 15.6 8.5 31.6 5.3 47.5-6 6.2-15.2 1.6-22.6 1.7-1.9-1.7-4.9-3-4.9-5.9-.4-6.9-.1-14.4 3.9-20.4zm3.2 6q-1.9.3-3.7.7c.6 4 .9 8.2 2 12.1.6 2.7 3.8 1.9 5.8 2.4l2.8 5.4q1.9-1.1 3.8-2.3c1.5.9 2.9 1.8 4.5 2.4 1.4-1.6 2.4-3.4 2.9-5.4 2.6-10.3-.5-20.8-2.8-30.8q-1.4.9-2.9 1.8c-1-3.7-2-7.5-3.2-11.2-3.4 8.1-6.6 16.4-9.2 24.9z"/><path id="Layer" class="s3" d="M343.8 367.2q2 .5 1.4 2.6-2-.5-1.4-2.6zM287.5 385.6c.7-5.7 3.7-11.4 9.2-13.5q-.7 2.1 1.4 2.2c.1.8.3 2.4.4 3.3-.9 10.3-4.2 20.1-9.4 29-2.6-6.7-3.6-14.1-1.6-21zM344.7 372.2q2 .5 1.6 2.5-2.1-.4-1.6-2.5zM345.8 377.9q1.8 1.2 1 3.2-1.7-1.2-1-3.2zM265.9 384.6c4.1 4 8.6 8.9 7.3 15.1-2.3-1.1-5.3-2.1-6.1-4.8-1-3.3-.9-6.9-1.2-10.3zM348 390.9q1.7 1.2.9 3.3-1.7-1.3-.9-3.3zM350.2 414.7c.3 3.6.4 7.1.6 10.6-.3-3.5-.4-7.1-.6-10.6zM323.5 424.1c7.3 1.8 14.6 3.4 22.1 3.5 1.1 6.1 1.9 12.2 2.6 18.4-1.2-5-2.4-9.9-4.3-14.6-.8 2.4-2.3 7.3-3.1 9.7-.7-2.1-1.4-4.1-2.1-6.2q-.8 1.6-1.7 3.2.2-3 .5-6.1-1.1 1.4-2.1 2.7c-1.5-3.2-3.1-6.4-5-9.4-7.3 12.6-15.2 27-11.6 42 2.3 14.9-2.7 29.9 1.3 44.7h-5.6c-.7-13.7-.6-27.5-1.5-41.1-1.7-8.9-.4-17.9 1.7-26.5 3.7-6.5 4.7-14.1 8.8-20.3zM351.2 431.7c.2 2.9.3 5.7.5 8.6-.2-2.8-.4-5.8-.5-8.6zM348.3 446.8c.4 5.1.2 10.2.4 15.3-.3-5.1-.3-10.2-.5-15.3zM352.2 449.7c.3 4.2.5 8.3.8 12.4-.3-4.1-.6-8.2-.8-12.4zM348.9 469.3c0-2.2-.1-4.3-.1-6.4.1 2.1.2 4.2.1 6.3zM353.1 463.8c.2 2.9.4 5.7.7 8.5-.3-2.8-.5-5.7-.7-8.5zM341.1 464.7c2.3 3.8 4.5 7.8 6.8 11.6.3-1.6.8-4.7 1-6.3-1.4 14.3-2.8 29.4-10.3 42h-7c1.5-1.3 2.9-2.7 4.2-4.2q1.8.3 3.6.7l.2-7c1.8-2.2 4.4-4.3 4.5-7.4.3-9.9-1.5-19.7-3-29.4zM263.8 469.7c5.2 2.9 9.4 7.8 12.7 12.8 2 7.9-.2 16.4-1.6 24.4-8-10.2-5.2-24.8-10.7-36.2zM353.8 473.1c1.1 1 2.1 2.4 1.5 3.9-1.7-.5-1.7-2.5-1.5-3.9zM354.7 479.1q2 .7 1.4 2.8-1.9-.9-1.4-2.9zM356 482.8q1.7 1.3.8 3.3-1.6-1.3-.8-3.3zM354.1 490.6c2.3 7.1 4.1 14.3 6.4 21.4h-1.1c-2.2-4.8-3.7-10-5.2-15.1 0-1.6-.1-4.7-.1-6.3zM386.7 492.8l.8-.8c-.8 6.6 2.3 14.1-2.3 20H383c3.9-5.7 2.3-12.8 3.7-19.2zM353 502.1c-.5-1.6-.1-3.3 1.2-4.3.5 1.6.1 3.2-1.2 4.3zM360.6 501.1c2.3.6 2.7 3 2.4 5.1-1.4-1.4-2.3-3.2-2.4-5.1zM352.3 511.6c.1-1.7.4-5.1.6-6.8 0 1.6.2 4.7.3 6.3z"/></g><g id="#d67a1cff"><path id="Layer" fill-rule="evenodd" class="s4" d="M213.9 100.3c3-2.2 6.7-1.4 10.1-.9 1.1 5.5 1.8 11.2 3.7 16.5 2.4 6.9 7 12.6 11.3 18.4q1.1 1.6 2.2 3.3v.8l-1.5.7c1.2-3.2-3.1-1.9-.7.4q.8 2.5 1.6 5.1v.7h-2.2c-3.7 1.3-6.6 3.9-9.9 5.9q-.1 2.6-.2 5.3-2.3-2.6-4.5-5.2 1.8 0 3.6.1-.8-1-1.5-1.9c-3 .5-6 .9-9 1.1q.3 3.4.3 6.9c-1.2-2.4-2.4-4.8-3.4-7.3q-1.8.3-3.7.7c4.4-6.5 3.6-15.2 9.1-21.1-1.9 4.6 1.3 8.8 3.2 12.8q1.4-1.4 2.8-2.7l6 7.2c-.9-2.4-1.9-4.8-2.8-7.2q2-.8 4-1.7-2.5-.3-4.9-.5l-.7-.1v-4c1.7.8 2.7-1.4 1.3-2.4q1.4.3 2.8.5c-3.6-3.6-6.4-8.2-7.1-13.4-1.4-5.5.6-11.6-2.3-16.8-2.4-.7-5-.9-7.6-1.2zm16.8 32.4c.8 2.9 2.9 5.3 5.7 6.6-1.6-2.5-3.5-4.7-5.8-6.6zm4.6 9.5q-.8 2.4 1.6 1.6.8-2.4-1.6-1.6z"/><path id="Layer" class="s4" d="M281.7 100.2c3.2-1.1 6.5-2 9.7-2.9l.7.4c1.8 2.1 3.5 4.3 5.2 6.5-2.2 5.9-3.6 12-5.3 18.1l-.3.7c.3-2.3.9-6.9 1.3-9.2q-2.3 1.2-4.4 2.3c.9-5 1.7-10 2.3-15.1-3 0-6.1 0-9.2.3v-1.1zM289.6 123.3q.5.9 1.1 1.9c-.2.3-.5 1-.7 1.3-1.5 2.8-2.5 5.9-3.4 8.9-.1.4-.3 1.1-.4 1.4q-2-.8-3.9-1.7c1.9-4.2 4.6-8 7.2-11.8zM219.9 129c.7-1.6 3-.1 2.1 1.2-.4-.1-1.3-.4-1.7-.5zM277.9 128.1c3 1.5 3.3 4.8 3.2 7.8-3-1.5-3.3-4.8-3.2-7.8zM280 139.3l.8.1c.6 1.5 1 2.9 1.5 4.3q-1.6.8-3.2 1.5.5-2.9.9-5.9zM284 142.4l.4-.3c.2.4.7 1.1 1 1.4l.5.9-.3.8c-2.3 1.5-3.1-1.5-1.6-2.8zM277.4 149.2q2.1-.7 1.5 1.4-2.1.6-1.5-1.4zM216.2 158.3c1.6-.6 2.3 2.1.6 2.4-1.5.5-2.3-2.1-.6-2.5zM204.4 183.1c-.1-6.2 2.3-14.1 9.6-14.9-.3.5-1 1.6-1.3 2.1-1.8 2.9-3.4 6-5 9q1.4.5 2.9 1c-2 1-4.1 1.9-6.2 2.8zM188.5 179.3l2.2 2.6q-3.6 3.3-7.1 6.7 1.5.5 3.1 1c2.1-2 4.4-3.8 6.7-5.5q-.6 2.1-1.3 4.1 2.7-.9 5.4-1.9c-1 1.9-1.6 4.2-3.2 5.7-2.6 1.2-5.6 1.5-8.4 2q.9-1.6 1.8-3.3-5 1-10 2.1l5.7-4.5-4.4.8q.8-1.3 1.6-2.5l.3-.6c.2-.3.5-.9.6-1.2q2 .6 2.8-1.5c1.4-1.4 2.8-2.7 4.2-4zM160.6 203.1c.6-.3 1.9-.8 2.6-1.1.3 1.6-1.7 2.6-2.6 1.1zM177.7 204c.6-1.3 1.7-2.6 3.2-2.4.1 1.7-1.8 2.3-3.2 2.4zM174.1 208.4c.3-1.6 1.6-2.6 2.8-3.6 0 1.6-.6 4.4-2.8 3.6zM153.7 207q1.7-.1 3.2-1 2.1-.1 4.3.1-2.3 1.8-4.6 3.7c3-.9 6.1-1.7 9.2-2.4-.3-.2-.7-.7-.9-.9 2.8.6 5.5 1.3 8.3 1.8.2 4.3.6 8.6.9 12.9q-7.6 3.5-15.5 6.5c6.4 1.5 12.4-1.8 17.2-5.8q-.4 1.2 0 2.5c0 .3.2.9.2 1.3-3.1.9-5.7 2.9-8.4 4.8q2.4.8 4.9 1.6v-3.3q2.9 1 5.8 2.1l-.6.4-.5.4c-6.2 3.1-12.6 6.1-17.5 11.2l-.6.3q-3.1 1.4-6.2 2.6c-1.7.6-3.4 1.1-5.1 1.6 2.1-2.7 3.9-5.5 5.8-8.3-3.9.6-7.9.4-11.8 0 2.3-3.7 3.4-8.7 7.4-10.9 8.1-3.8 19.7-2.7 24.6-11.7q-2.5-.6-4.9-1.1c-.3-2-.8-3.9-1.4-5.8l-1.1.2c-5.8-.2-8.7 5.2-11.5 9.4q-.7.9-1.5 1.9c-1.1.8-2.3 1.5-3.5 2.3 1.8-2.8 3.5-5.6 5.2-8.5q-2 .5-4 .9l-2-3q1.9-2.8 3.9-5.6zM202.7 209.5q-1.4-1.6.7-2.7l.8.4c-.2.5-.5 1.5-.6 2zM143.9 209l.7-.1.4 1.6c-.5.4-1.5 1.1-2 1.5q-.2-1.7.9-3zM145.8 208.6q1.4 1.7 2.7 3.5l-2.6 4c0-1.9 0-5.6-.1-7.5zM194.3 214.7c2.2-1.7 4.5-3.2 7-4.5-1.3 1.2-2.5 2.5-3.8 3.6l-.8.5-2.4.4zM139.8 216.4c.4-1.9 1.4-3.7 3.2-4.4 0 1.7-.9 3.4-2.5 4.2zM216 213.3c1.8 1.8 3.3 4 4.3 6.3-2.5-1.2-3.6-3.7-4.3-6.3zM189.3 217.3c.6-1.9 2.6-2.4 4.4-2.5q-.7 1.3-1.8 2.4c-.7 0-2 .1-2.6.1zM204.3 216.3c1.3-1 2.9 1.2 1.6 2.2-1.3 1-2.9-1.2-1.6-2.2zM140.1 219.7c-1.8.5-1.7-1.7-.6-2.4.3.4.8 1.3 1.1 1.7zM188.7 218.2c-1.9 1.3-4.6 0-2.1-1.8l2.4 1.6zM194.5 218.3c.5.1 1.4.2 1.9.2l.4 4c-.5-.3-1.6-1.1-2.1-1.4l-.2-2.8z"/><path id="Layer" class="s4" d="M135.2 219.8q2 3.6 4 7.3c.5-.3 1.4-.9 1.9-1.2q1.5-.9 3.1-2-1 1.3-1.9 2.7c2-.7 4-1.5 6-2.1.5 0 1.5-.1 2-.1-2.9 1.6-6.2 2.9-8.6 5.4-2.5 3.3-4.5 6.9-6.8 10.4-1.2-6.1-.5-12.4 0-18.5.1-.5.2-1.5.3-1.9zM178.3 230.9c-2.5-1.7-.2-5.1 1.2-1.7-.3.5-.9 1.3-1.2 1.7zM170.6 246.9c1.7-.7 3.5-1.2 5.3-1.5-.2.6-.6 1.9-.9 2.5.4 0 1.2-.1 1.7-.1 1.8.2 3.6.4 5.5.6q-3.5.5-7 1.1h-.8c-1.3-.8-2.6-1.7-3.8-2.6zM144.1 247.9c-.5-2.3 3-2.5 2.5-.1-.7 0-1.9.1-2.5.1zM131.3 247.1c3.4.5 6.7.9 10.1 1.3-.8.2-2.2.5-3 .7 7.5 3.4 15.7 6.2 23.9 4.2q-2.2 1.4-4.6 2.6c-2.7.5-5.4 1.5-8.2 1.1-6-2.4-11.5-5.7-17.3-8.6-.2-.3-.6-1-.9-1.3zM278 276.7l.1.4c1.5 7.3 1.5 15.6 6.6 21.6-1.4.6-2.8 1.2-4.3 1.7q-2.3.3-4.5.5c-1.6-7.2-1.5-14.8 1.2-21.7.3-.6.7-1.8.9-2.5zM290.4 308.1c.4-.3 1-1 1.3-1.3-1.6 6-4.9 11.3-7.7 16.8-1 5.5 2.9 9.9 5.9 14 6.3-3.8 10.4-9.9 15.6-14.8l.7-.4c.1 1.5.3 3.1.4 4.6v.6c-1.9.6-2.1 2.8-1.8 4.5q-.3 1.5-.7 3c-2 .2-3 2-3.6 3.7l-.4.8c-.8 1.2-1.5 2.9-.7 4.4-3 .9-5.9 1.7-8.9 2.7-2.8-4.2-6.1-8-10-11.3-3.7-3-5.6-7.6-7.8-11.7.6-.1 1.6-.1 2.1-.1l-1.6-4.2c4.6-3.1 9.3-6 13.5-9.6.3-.2.9-.7 1.2-.9.6-.2 1.9-.6 2.5-.8zM258.4 313.1q1.2-1.8 2.4-3.5c.1 3.1.2 6.2.4 9.4q-1.1 2.1.9 2.9l-.2 5c-.5 1.5-.1 3.1 1.1 4.2q.1 2.8.2 5.7c-.1 4.2-.3 8.5-.5 12.8-.3-3.3-.5-6.3-.7-9.5l-4.2 4.2c.9-4.8 1.9-9.6 3-14.4l-3 1.8c-.3-2.2-.6-4.4-.8-6.6l.1-.7c1.9-3.5 2.3-7.5 1.3-11.3zM313.6 338.8l.1.9c-2.6 7.5-5.5 14.9-8.4 22.3l-.8.2c.2-1.8.5-5.3.6-7.1q.7-2.6 1.6-5c1.7-2.7 3.2-5.4 4.1-8.4 1.5-.2 2.5-1.5 2.8-2.9zM268.1 344.8c4.3 5.8 8.3 14.1 3.6 20.9-.5 1.9-2.9 1.5-3.2-.3-2.5-6.5-.3-13.8-.5-20.6zM331.5 352.5q1.4 0 2.7.1c-.3.3-1 .8-1.3 1q-1.9 1.4-3.6 2.8c.8-1.3 1.5-2.6 2.2-3.9zM309 376.7c6.4-6.2 13.7-11.4 19.1-18.6-5.2 7.2-9.2 17.4-18.8 19.7zM315.5 389.6c7.2-9.2 13.4-19.2 17.6-30.1q.2 1.7.5 3.3c-2.9 8.5-7.5 16.1-12.2 23.6-4 6-4.3 13.5-3.9 20.4 0 2.9 3 4.2 4.9 5.9-.8-.1-2.5-.1-3.3-.1-3.3-.2-6.6 0-9.9.2.2-3 .5-5.9.8-8.8l.2-.9c1.2-4.7 2.2-9.7 5.3-13.6zM286.5 364.7c.7-2.1 2.8-3.1 4.7-3.8l.9.3c2 1.8 3.8 3.9 5.5 6q-.5 2.4-.9 4.9c-5.5 2.2-8.5 7.8-9.2 13.5-2 6.9-1 14.3 1.6 21 5.2-8.8 8.5-18.7 9.4-29l.1.7c.6 3.6 2 7 2.6 10.6-1.1 6.7-1.4 14-5.4 19.8-2.7 3.8-4.7 8.2-7.9 11.6-2 1.2-3.4-1.3-4.2-2.9-3.9-12-2.1-24.8-1.5-37.2 2.5-4.9 2.3-10.5 4.3-15.5zM257.1 368.1c1.4-2.3 3.1-4.4 4.5-6.6 0 4.8.2 9.6.3 14.4a5.34 5.34 0 0 0-.8 5.3c-.1.7-.2 2.1-.4 2.8-.8 1.5-1.3 3.5-.2 5l-.5.6c-.4.5-1.3 1.5-1.7 2l-1.2-4c-.1-1.5-.2-4.7-.3-6.3v-8.7c0-1.5.1-3 .3-4.5z"/><path id="Layer" fill-rule="evenodd" class="s4" d="M278.6 362.5c4 15.1-2.9 29.9-3.9 45q-2 .1-4 .3c-3.1-4.9-6.3-10.1-7.3-16q.3-2.3.6-4.5c.5-2.7 1.1-5.3 1.7-7.8 7.2-2.9 9.2-11 12.9-17zm-12.7 22.1c.3 3.5.2 7 1.2 10.3.8 2.7 3.8 3.7 6.1 4.8 1.3-6.2-3.2-11.1-7.3-15.1z"/><path id="Layer" class="s4" d="m259.7 420.5.8-2.8.3.9c-.3 1.6.5 3.1 2 3.9l.3.5c4.2 7.5 2.4 16.6-2.9 23.1v-1.2c.1-7 .2-14.1-.3-21.1q-.1-1.7-.2-3.3zM320.4 423.4q1.5.3 3.1.7c-4.1 6.2-5.1 13.8-8.8 20.3-2.1 8.6-3.4 17.7-1.7 26.5.9 13.7.8 27.4 1.5 41.1h-6.2c.8-12.3-.5-24.6-2.1-36.7-.9-7.7-.6-15.5-1.4-23.2-.7-6.5 1.5-12.9 4.1-18.8q-1.5.2-3.1.5c3.3-2.7 6.7-5.5 10.4-7.7.6-.2 1.6-.7 2.1-.9.5-.5 1.6-1.4 2.1-1.8zM286.2 447.4q2.9-.1 5.9-.1c.1 1.4.4 4.2.6 5.6 0 .8.2 2.3.2 3.1.3 1.4.7 4.4 1 5.9q.1 1.9.3 3.8c.1 3.2.3 6.4.4 9.7l.1.9c.1.6.3 2 .5 2.6.2 3.1.3 6.3.5 9.4.2 1.7.4 3.5.8 5.2-4.2-1.9-8.8-4.2-10.6-8.7-5.5-11.8-3.3-25.4.3-37.4zM261.4 461.7c3.2-1.9 6.5-3.7 9.7-5.6 2.8 11.8 8.5 23.2 8.5 35.6-.3 6.8-.2 13.6-1.4 20.3h-9.3c.9-1.3 0-2.8-.9-3.9 0-.6-.1-2-.2-2.7-.2-3.3-.4-6.5-.6-9.7 0-.6-.1-1.8-.2-2.4-.2-1.7-.7-5-.9-6.7 0-.6-.1-1.8-.1-2.4.6-1.6.2-3.2-1-4.3q-.7-3.7-1.4-7.3c.2-.5.4-1.5.6-1.9 5.5 11.4 2.7 26 10.7 36.2 1.4-8 3.6-16.5 1.6-24.5-3.3-5-7.5-9.8-12.7-12.7l-.8-.3c.1-.4.3-1.1.4-1.4.7-1.5-.4-3-1.4-4-.2-.6-.5-1.7-.6-2.3zM261.1 482.1q.7-1.4 1.4-2.7c.3 3.5.4 6.9.6 10.5q-.8 2 .9 3.3l.4 5.6c-.4.6-1.2 1.8-1.6 2.5-1.5-6.3-1.9-12.8-1.7-19.2zM280.9 512c2.9-6.4 4.9-13.2 8.4-19.4.3 6.5 1.1 13 1.7 19.4z"/></g><g id="#f3b55cff"><path id="Layer" fill-rule="evenodd" class="s5" d="M213.9 100.3c2.6.3 5.2.5 7.6 1.2 2.9 5.2.9 11.3 2.3 16.8.7 5.2 3.5 9.8 7.1 13.4q-1.4-.2-2.8-.5l-.6-.1q-2.7-.5-5.5-.9c.9-1.3-1.4-2.8-2.1-1.2l-.7.8c-5.5 5.9-4.7 14.6-9.1 21.1q1.9-.4 3.7-.7c1 2.5 2.2 4.9 3.4 7.3q0-3.5-.3-6.9c3-.2 6-.6 9-1.1q.7.9 1.5 1.9-1.8-.1-3.6-.1 2.2 2.6 4.5 5.2.1-2.7.2-5.3c3.3-2 6.2-4.6 9.9-5.9 1.6 1.9 3.3 3.8 5.2 5.5l.4.4c2.3 2.1 5 3.8 7.7 5.3l-.6.4-.8.4q-1.3-1.7-3.3-.8l-.7-.5q-3.3-2.4-6.8-4.7l-.5-.4c-.4-.2-1.2-.8-1.6-1-1.1 1.9-2.2 3.8-3.4 5.6-.1 0-.2.2-.2.2-1.2 1.3-2 2.8-2.8 4.3q-1.2.9-2.4 1.7c-2.5 1-5.2 1.4-7.9 1.7q.1 2.8.2 5.5c-2.3-.2-4.6-.6-6.9-.7-7.3.8-9.7 8.7-9.6 14.9.7.3 2 1 2.6 1.3-6.4 2.9-10.9 8.9-17.2 11.9l-.8.1q-2 0-3.9-.1c1.1 1.4 2.2 2.8 3.2 4.2q-2.1.4-4.2.7l-3.2.4c-1.6-.2-2.6 1.1-3.2 2.4l-.8.8c-1.2 1-2.5 2-2.8 3.6l-.9-.1c-2.8-.5-5.5-1.2-8.3-1.8q-1.8-.3-3.7-.4-2.2-.2-4.3-.1l.2-.7q1.7-1.1 3.5-2.2c.9 1.5 2.9.5 2.5-1.1 2.3-1.7 4.5-3.3 6.7-5 3.1-2.5 6.6-4.7 9.2-7.9l4.4-.8-5.7 4.5q5-1.1 10-2.1l-1.8 3.4c2.8-.6 5.8-.9 8.4-2.1 1.6-1.5 2.2-3.8 3.2-5.7q-2.7 1-5.4 1.9.7-2 1.3-4.1c-2.3 1.7-4.6 3.5-6.7 5.5q-1.6-.5-3.1-1 3.5-3.4 7.1-6.7l-2.2-2.6c-1.4 1.3-2.8 2.6-4.2 4q1.5-2.4 2.9-4.8 2.1-.7 1.8-2.8 1.1-1.8 2.3-3.6 1-1.2 1.6-2.7c1.2.2 3.5.6 4.7.8.4-.4 1.4-1.3 1.9-1.8q1.2-.7 2.5-1.4c.2-.2.8-.5 1.1-.6q1.5-.4 3-1c4-.3 1.7-3.7-1.2-2.3h-.8c-.3-.1-.9-.3-1.2-.3l-4.2-2.7-.8-.5c1.8-1.7 3.4-3.4 5.1-5.2.3-.6.9-1.7 1.2-2.3 3.5-4.5 6.6-9.2 8.3-14.6 1.7-1 2.2-3.3.5-4.7l-.3-.4c1.4-1.8-1.7-3.6-1.4-.9l-.7-.7c.2-3.6.4-7.3.5-11 .1-5.1.5-10.2 1-15.3.1-.4.1-1.1.2-1.5.4-.6 1.2-2 1.6-2.7zm-10.6 57.3c-1.3.7-1.5 3-.1 3.7 1.8 0 2.2-4.1.1-3.7zm12.9.7c-1.7.3-1 2.9.6 2.5 1.7-.4.9-3-.6-2.5zm-37.1 40.1c-1.1-.7-3.4.6-2.6 1.9 1 .8 2.6-.3 2.8-1.4 1.3.6 3.5-1 3-2.5-1.3-.6-2.9.8-3.2 2zm-8 6.6c-1.7 2.1 3.1 2.1 1.6 0 2.1-2.5-3.5-2.6-1.6 0zM281.7 101.3c3.1-.3 6.2-.3 9.2-.3-.6 5.1-1.4 10.1-2.3 15.1q2.1-1.1 4.4-2.3c-.4 2.3-1 6.9-1.3 9.2q-.4 1.1-1 2.2-.6-1-1.1-1.9c-2.6 3.8-5.4 7.6-7.3 11.8q1.9.9 3.9 1.7l-1.4 3.8c-.2.4-.6 1.3-.8 1.8-1.5 1.4-.7 4.3 1.6 2.8-1.5 3.7-3.1 7.3-4.3 11.1l-.2-.9-.1-.4q.5-1.8-.3-3.3c-1.8-.6-1.2 2.3-.3 3-1.5-.8-3.1-1.5-4.2-2.9.4-2 1.2-3.8 2-5.6q-2-.8-4-1.7-.1-1.7-.3-3.5 2 0 1.9-2 1.3.1 2.5.2c.4 0 1.3.1 1.7.1q-.4 3-.9 5.9 1.6-.7 3.2-1.5c-.5-1.4-.9-2.8-1.5-4.3q1-1.4 2.1-2.8c-.7-.1-2-.3-2.7-.4q-3.1-.4-6.1-.7c1.1-4.7 3.5-8.9 5.9-13q-2-.2-3.9-.4-2.2-.1-1.8 2.2-1.7.6-3.5 1.3c3.1-4 6.3-8 8.4-12.7 1.6-3 2.4-6.4 2.4-9.8 0-.4.1-1.3.1-1.8zm-3.8 26.8c-.1 3 .2 6.3 3.2 7.8.1-3.1-.2-6.3-3.2-7.8zm-.5 21.1q-.6 2 1.5 1.4.6-2.1-1.5-1.4z"/><path id="Layer" class="s5" d="M266.8 128.3c2.2 1.3 4.4 2.4 6.8 3.2-1.1 4.1-2.3 8.3-4.4 12-.6-4-1-8-1.7-12-.4 1.6-.9 3.2-1.3 4.8q-1.4-.8-2.9-.2c-1.3.4-2.5.8-3.8 1.2-1.3.9-2.6 1.8-3.9 2.8h4.2c.2 1.8.6 3.6 1.1 5.4l.2.5c.6-.4 1.8-1.1 2.3-1.4q.7 1.6 1.4 3.3l-1.6 2.4c-.9-.9-2.1-1.5-3.4-1.5h-.9c-.6 0-1.7-.1-2.3-.1q.4-1.9.8-3.9c.1-.5.3-1.3.4-1.7q-3.8.9-7.6 1.7.5-.8 1-1.5 2.2-3.1 4.1-6.3c.3-.2.9-.4 1.1-.6 3.8-2.3 7.2-5.1 10.4-8.1zM230.7 132.7c2.2 1.9 4.1 4.1 5.7 6.6-2.8-1.3-4.9-3.7-5.7-6.6zM227.5 137.7q2.4.2 4.9.5l-4 1.8c-.2-.6-.7-1.8-.9-2.3zM239 139.5c-2.4-2.3 1.9-3.6.7-.4z"/><path id="Layer" class="s5" d="M263.4 136.8c.6.2 1.9.6 2.5.8q-.2 2.3-.3 4.5l-2.8 1-.5.2c-.1-.7-.3-2.3-.4-3q2.1-.5 1.6-2.7zM235.2 142.2q2.4-.8 1.6 1.6-2.4.8-1.6-1.6zM252.1 145.7q1.4.8 2.8 1.7c0 .4-.1 1.1-.1 1.4-.6 0-1.8.1-2.4.2 0-.8-.2-2.5-.3-3.3zM268.1 147c3.3-.8 3.7 4.2 1.8 6-3.3.8-3.7-4.3-1.8-6zM271.9 148c.9 0 2.7.1 3.6.1-1 1.9-2 3.8-3.1 5.6q-.3-2.8-.5-5.7zM260.5 152l.8.1h.6q4.6 3.2 8.9 6.8-2.4.9-4.7 1.8 0-1.7-.1-3.4-1.2 1.1-2.4 2.3c-.3 0-1 .1-1.3.2-2-1.9-3.9-4-5.9-5.8q2-1 4.1-2zM255.4 157.9h1.7q.9 1.1 1.8 2.3c.4.5 1.2 1.7 1.6 2.2q1.9 2.6 3.7 5.3 1.1 2 2.1 4c-3-2.2-6.7-2.7-10.4-2.7-1.6-5.5-7.2-6.3-12-7.3q2.6-1.6 5.3-3.4c.7 0 2.2-.1 3-.2 1.7 1 3.3 2 5 3l-1.8-3.2zM278.4 157.5c1 2.1 2 4.2 2.5 6.5-.3.4-.8 1.3-1.1 1.7-.9-1.3-1.8-2.5-2.7-3.8.3-1.5.7-3 1.3-4.4zM231 186.1c.8-1.4 2.2-2.5 3.6-3.4l.1.8c0 .4-.1 1.3-.1 1.7q-1.9.2-2.6 1.9l-.7-.3zM211.2 204.4c1.1-.4 2.2-.8 3.3-1.3q-.8 2.1-1.6 4.1c-1.5 1.5-3.5 2.5-5.5 1.3.8-.1 2.4-.3 3.3-.4q.2-1.8.5-3.7zM145.8 208.6q3.6-.8 7.2-1.4-2 2.8-3.9 5.7l-.6-.8q-1.3-1.8-2.7-3.5zM142.6 209.4c.3-.1 1-.3 1.3-.4q-1.1 1.3-.9 3c-1.8.7-2.8 2.5-3.2 4.4l-.3.9c-1.1.7-1.2 2.9.6 2.4-.9 1.8-.2 3.7.8 5.3l.2.9c-.5.3-1.4.9-1.9 1.2q-2-3.7-4-7.3c.5-2.5 1.4-4.7 2.4-7 2.3.2 3.9-1.6 5-3.4z"/><path id="Layer" fill-rule="evenodd" class="s5" d="M214.8 212.1q1.7-.7 3.4-1.3c1 2.1 2 4.4 2.9 6.6l1.5 4.5c1.3-.9 2.5-1.7 3.8-2.6l-2.7 3.3q-1.9 1.6-4 3.1c-1.1.7-2.3 1.3-2.9 2.5q-.1-1.3-.1-2.5c.4-.4 1.2-1.2 1.7-1.6 1.4-1.5-.9-3.3-2.4-3.2q-.6-2.5-1.3-5 .7-1.9.1-3.8zm1.2 1.2c.7 2.6 1.8 5.1 4.3 6.3-1-2.3-2.5-4.5-4.3-6.3zM201.4 218.7c1-2.8 2.7-5.2 5.3-6.6q.5 2 2.4 1.4c1 3.6 2.3 7.1 3.4 10.6l1.4 4.6c-.2-.1-.7-.4-1-.6l-2.4-1.6-.8-.7c-2.8-2.4-5.5-4.8-8.3-7.1zm2.9-2.4c-1.3 1 .3 3.2 1.6 2.2s-.3-3.2-1.6-2.2z"/><path id="Layer" class="s5" d="m194.3 214.7 2.4-.4c-.5 3.4 1.2 6.5 2.1 9.7q-1-.7-2-1.5l-.4-4c-.5 0-1.4-.1-1.9-.2l.2 2.8-.6-.4c-.8-1.2-1.5-2.3-2.2-3.5q1.1-1.1 1.8-2.4zM151.1 215.8q2-.4 4-.9c-1.7 2.9-3.4 5.7-5.2 8.5-.4.3-1.2.8-1.6 1.1-2 .6-4 1.4-6 2.1q.9-1.4 1.9-2.7 1.9-1.4 3.7-2.9 2.1-.1 2.5-2 .4-1.6.7-3.2z"/><path id="Layer" class="s5" d="M168.9 215.4q2.4.5 4.8 1.1c-4.8 9-16.4 7.9-24.6 11.7-3.9 2.2-5 7.2-7.3 10.9 3.9.4 7.9.6 11.8 0-1.9 2.8-3.8 5.6-5.8 8.3-.3.1-1 .3-1.2.4.5-2.4-3-2.2-2.5.1-.7.1-2 .4-2.7.5-3.4-.4-6.7-.8-10.1-1.3-.6 0-1.9.1-2.6.1-1.4-4.6-2.4-9.7-.9-14.5 1.9-3.9 4.5-7.5 7.1-11-.5 6.1-1.2 12.4 0 18.5 2.3-3.5 4.3-7.1 6.8-10.4 2.4-2.5 5.6-3.8 8.6-5.4.4 0 1 0 1.4-.1q1.7 0 3.5-.1c.6 0 2-.1 2.7-.2l7.2-2.6c1.7-.4 3.1-1.7 3.2-3.4.2-.6.5-2 .6-2.6zM226.9 218.9q1.1-1.7 3-1.1-.8 2-3 1.1zM177.3 221l.7.2c-.1.5-.2 1.3-.3 1.7-.5.4-1.5 1.1-1.9 1.5q-.4-1.3 0-2.5c.4-.2 1.1-.7 1.5-.9zM176 225.7q1.6-.4 2.9-1.2l.3 1.3.6 3-.3.5c-1.4-3.5-3.7-.1-1.2 1.6q-2.9-1.1-5.8-2.1v3.3q-2.5-.8-4.9-1.6c2.7-1.9 5.3-3.9 8.4-4.8zM202.2 241.1l.5-.4c.3.3.8.9 1 1.2q-.4 1.3-1.5 2.2c-.3-.2-.8-.4-1.1-.5.3-.6.8-1.8 1.1-2.5zM223.6 241c.3-.1 1.1-.2 1.5-.2.5.3 1.5 1 2 1.3-.3.3-1 .9-1.3 1.2-.7-.3-2.2-.8-2.9-1 .2-.3.5-1 .7-1.3zM191.4 245.3c-3.1-1.4 1-3.8.6-.4zM185.8 244.6l1.2.2 3.6.4q-2.1.3-2.5 2.4c-2 .2-4 .5-5.9.8-1.9-.2-3.7-.4-5.6-.6 1.5-.4 4.4-1.1 5.9-1.5h.9q2.1.4 2.4-1.7zM195.6 246.3c1 .3 1.8 1.1 2.4 1.9l-.4.4c-1.6.2-3.1-.2-4.7-.4q1.3-1.1 2.7-1.9zM132.2 248.4c5.8 2.9 11.3 6.2 17.3 8.6 2.8.4 5.5-.6 8.3-1.1q1.7.2 3.5.5c-3.2 2.1-6.6 3.8-10.2 5.1-8.1.8-13-7.2-18.1-12.2-.2-.2-.6-.7-.8-.9zM322.4 260.8c-1.7 2.1-2.5-1.5-.3-1.8.1.4.2 1.3.3 1.7zM322.9 272.5c-.2-2.9-.3-5.8-.2-8.7.1.5.5 1.6.6 2.1q-.8 1.8.8 3v1.5c-.3.5-.9 1.6-1.2 2.1zM259.3 287c-.4-3.8-.5-7.6-.9-11.3 2.6 3.6 6.4 6.5 8.1 10.7 1.2 4.6.2 9.4.5 14.1-2.9-4.3-5.4-8.9-7.7-13.5zM275 279.6c.6-.1 1.6-.3 2.1-.4-2.7 6.9-2.8 14.5-1.2 21.6q2.2-.1 4.5-.4c-2.8 1.1-5.7 2.1-8.5 3.1.4-8.1 1.2-16.1 3.1-23.9zM296.4 279.7c2.3-.4 2.1 2.5-.1 2 .1-.5.1-1.5.2-2zM328.2 291.8c-1.6-.1-1.9-2.3-.3-2.9 0 .7.2 2.2.3 2.9zM327.4 298.3c.3-1.1.9-3.2 1.2-4.3.2.7.7 2.2.9 3-.5.3-1.6 1-2.1 1.3zM294.2 305c1.9-2 3.7-3.9 5.8-5.7-1.6 1.8-3.2 3.8-4.9 5.6-.2.3-.7.7-.9 1zM328.3 299.3c.3.4 1.1 1.3 1.4 1.7.1.3.4.9.5 1.2v3.1c-.2.4-.5 1.3-.6 1.7q-.6-3.3-1.1-6.5zM257.1 324.4c0-7.2.6-14.5 4.6-20.7 3.4 6.7 5.7 14 5.5 21.5-.5.2-1.5.5-2 .7-1.2-4.8-2-9.6-3-14.4q-.2 3.9-.3 7.8l-.7-.3c-.2-3.2-.3-6.2-.4-9.4q-1.2 1.7-2.4 3.5c1 3.8.6 7.8-1.3 11.3zM287.9 308.9c.1-1.3 2-2.6 2.5-.8-.6.2-1.9.6-2.5.8zM271.8 314.9c5.2-1.7 10.5-3.3 15.4-5.7l-.5.6c-4.2 3.6-8.9 6.5-13.5 9.6l1.6 4.2c-.5 0-1.6.1-2.1.1 2.2 4.1 4.1 8.7 7.8 11.7 3.9 3.3 7.2 7.1 10 11.3 2.9-.9 5.9-1.8 8.9-2.7l-.7.6q-1.9.8-1.6 2.7c-4.6.1-9.8 1.2-13.7-1.7-4.1-3.1-7.9-6.6-11.6-10.1-.4-1.6-1-3.4-2.9-3.7 1.2-5.6 2-11.3 2.9-16.9zM258.8 349.8c-1.7-8.1-3.8-16.3-1.8-24.7.2 2.3.5 4.4.7 6.6q1.6-.9 3.1-1.8c-1.1 4.8-2.1 9.6-3 14.4q2.1-2.1 4.1-4.2c.3 3.2.5 6.2.8 9.5.2-4.3.4-8.6.5-12.8q.5 7.6.9 15.2-2.6-1.1-5.3-2.2zM261.9 326.9c1.3 1 1.7 2.7 1.1 4.2-1.2-1-1.6-2.7-1.1-4.2zM300.5 338.8c.6-1.7 1.6-3.5 3.6-3.7q-.3 1.7-1 3.3c-.6.1-1.9.3-2.6.4z"/><path id="Layer" class="s5" d="M299.4 344c-.8-1.5-.1-3.2.7-4.4.3.6.7 2 .9 2.6-.4.4-1.2 1.3-1.6 1.8z"/><path id="Layer" fill-rule="evenodd" class="s5" d="M267.6 343.2c5.7 8.3 13.6 15.3 23.6 17.7-1.9.7-4 1.7-4.7 3.8-2 5-1.8 10.6-4.3 15.5-.6 12.4-2.4 25.2 1.5 37.3.8 1.5 2.2 4 4.2 2.8 3.2-3.4 5.2-7.8 7.9-11.6 4-5.8 4.3-13.1 5.4-19.8 1.3 12.9-3.3 25.6-6.4 38.1q-6.7-.1-13.4-.1-.9-4.1-1.9-8.1l-1-4c-.4 2.2-.8 4.5-1.2 6.7-.2.6-.5 1.7-.6 2.2q-1.9-1.2-3.7-2.3c.5-2.1-1.4-3.4-3.1-3.7-2-2.6-3.9-5.2-5.7-7.9-3.5-5.3-.9-12.2-.8-18 1 6 4.2 11.1 7.3 16q2-.2 4-.3c1-15 7.9-29.9 3.9-45-3.7 6-5.7 14.1-12.9 17-.6 2.5-1.2 5.1-1.7 7.8.3-2.9.5-5.8.8-8.6 2-1.5 4.3-2.5 6.1-4.2-.7-4.4-3.7-8.1-4.5-12.5-.4-6.3.7-12.6 1.2-18.8zm.4 1.6c.2 6.8-2 14.1.5 20.6.3 1.8 2.7 2.2 3.2.3 4.6-6.8.7-15.1-3.7-20.9z"/><path id="Layer" class="s5" d="M329.3 356.4q1.7-1.4 3.6-2.8l.2 6c-4.2 10.8-10.4 20.8-17.6 30-3.1 3.8-4.1 8.8-5.3 13.6 1.3-8.3 2.3-17-.8-25l-.1-.4c9.6-2.3 13.6-12.5 18.8-19.7.3-.4.9-1.3 1.2-1.7zM259.8 360.8c.5-.1 1.5-.2 2.1-.3l-.3 1c-1.4 2.2-3.1 4.3-4.5 6.6.4-2.6 1.3-5.1 2.7-7.3zM292.1 361.2q2.2.7 4.5 1.4l1 4.6c-1.7-2.1-3.5-4.2-5.5-6zM304.5 362.2l.8-.2c.1.7.4 2.2.5 3q-1.7-1-1.3-2.8zM256.8 372.6v8.7q-.1-4.4 0-8.7zM261.1 381.2c-.7-1.8-.4-3.8.8-5.3.7 1.8.4 3.8-.8 5.3zM260.5 389c-1.1-1.5-.6-3.5.3-5 .6 1.6 1.1 3.7-.3 5zM257.1 387.6l1.2 4c.4-.5 1.3-1.5 1.7-2l-2.8 3.8q0-2.9-.1-5.8zM307.9 413.9l2.1-9.9c-.3 2.9-.6 5.8-.8 8.8 3.3-.2 6.6-.4 9.9-.2.4.1 1.3.4 1.7.5-3.2.4-6.4 1.1-9.5 1.8-.5.1-1.6.3-2.2.5-.3-.4-.9-1.1-1.2-1.5zM257.7 415.2c.2-1.3.5-2.5.7-3.7l2.1 6.3c-.2.6-.6 2-.8 2.7l-.1-.9-.1-.8c.1-1.4-.2-3.3-1.8-3.6zM260.8 418.6c1.4.8 2.1 2.3 2 3.9-1.5-.8-2.3-2.3-2-3.9zM263.1 423c2.8 4.7 6 9.3 9 13.9-3.6 3.8-7.4 7.5-11.9 10.1v-.9c5.3-6.5 7.1-15.6 2.9-23.1zM318.3 425.2q-.4-2.1 1.6-2.3l.5.5c-.5.4-1.6 1.3-2.1 1.8zM259.9 423.8c.5 7 .4 14.1.3 21.1-.1-7-.1-14.1-.3-21.1zM312.8 426.8q1.7-.3 3.4-.7c-3.7 2.2-7.1 5-10.4 7.7q1.6-.3 3.1-.5c-2.6 5.9-4.8 12.3-4.1 18.8.8 7.7.5 15.5 1.4 23.2 1.6 12.1 2.9 24.4 2.1 36.7h-2.1c-.2-19.4-3.1-38.6-3.2-58 .4-1.4.4-3.5-1.4-3.9.8-7.4 1.2-15 3.5-22 1.7.7 3.4-.1 4.9-.8.7-.1 2.1-.3 2.8-.5zM278.7 444.3c4.4-1.7 9.3-1.8 14-2l.3 9.9-.3.7c-.2-1.4-.5-4.2-.6-5.6q-3 0-5.9.1c-3.6 12-5.8 25.6-.3 37.4 1.8 4.5 6.4 6.8 10.6 8.7.1.5.4 1.3.5 1.7-1.4.6-1.5 2.3-1.3 3.6.1 4.4 0 8.8.1 13.2H291c-.6-6.4-1.4-12.9-1.7-19.4-3.5 6.2-5.5 13-8.4 19.4h-2.7c1.2-6.7 1.1-13.5 1.4-20.3 0-12.4-5.7-23.8-8.5-35.6-3.2 1.9-6.5 3.7-9.7 5.6l-.8.6-.1-1c5.3-4.2 11.1-7.9 15.9-12.7 1.3-1 2.9-2.4 2.3-4.3z"/><path id="Layer" class="s5" d="m292.9 455.9.7.1c1.8 1.5 1.2 4 .3 5.9-.3-1.5-.7-4.5-1-5.9zM351.3 463.8c1.8.9 1.1 4.2.1 5.7l-.1-.2c-.6-1.7-1.2-4 0-5.5zM262 464c1 1 2.1 2.5 1.4 4-1.7-.6-1.7-2.6-1.4-4zM294.2 465.7c.2 3.2.3 6.4.4 9.7-.1-3.3-.3-6.5-.4-9.7zM263 469.4l.8.3.4 1c-.2.5-.4 1.4-.6 1.9q-1.3-1.5-.6-3.2zM295.2 478.9h.8c-.2 3.1-.3 6.2-.3 9.4-.2-3.1-.3-6.3-.5-9.4zM265 479.9c1.2 1.1 1.6 2.8 1 4.3-1.3-1.1-1.6-2.8-1-4.3zM259.1 496.8c-.7-4.9 0-10.1 2-14.7-.2 6.4.2 12.9 1.7 19.2.4-.7 1.2-1.9 1.6-2.5.1 1.8.3 3.7.5 5.6-2-2.5-4.5-4.7-5.8-7.6zM266.1 486.6c.2 1.7.7 5 .9 6.7-.2-1.7-.7-5-.9-6.7zM267.2 495.7c.2 3.2.4 6.4.6 9.7-.2-3.2-.4-6.5-.6-9.7zM268 508.1c.9 1.1 1.8 2.6.9 3.9h-.6q-.9-1.9-.3-3.9z"/></g><g id="#f8eedfff"><path id="Layer" fill-rule="evenodd" class="s6" d="M266.8 128.3c4.2-5.1 8.4-10.2 12.4-15.4-2.1 4.7-5.3 8.7-8.4 12.7q1.8-.7 3.5-1.3 2-.3 1.8-2.2 1.9.2 3.9.3c-2.4 4.2-4.8 8.4-5.9 13.1q3 .3 6.1.7-.9 1.5-1.9 3-1.2-.1-2.5-.2-2.2-.1-1.9 2 .2 1.8.3 3.5 2 .9 4 1.7c-.8 1.8-1.6 3.6-2 5.6 1.1 1.4 2.7 2.1 4.2 2.9l.6.3.1.4c-.9.7-1.8 1.3-2.7 2.1-.6 1.4-1 2.9-1.3 4.4-.6 3.9-2 7.6-3.2 11.4q-1.4-3.1-2.8-6.3-1.6 2.9-3.3 5.9l-3.6-5.2q-1.8-2.7-3.7-5.3 1.6-1.4 3.1-2.8 1.2-1.2 2.4-2.3.1 1.7.1 3.4 2.3-.9 4.7-1.8-4.3-3.6-8.9-6.8c.3-.4.9-1.3 1.3-1.8l1.6-2.4q-.7-1.7-1.4-3.3c-.1-.4-.4-1.1-.6-1.5l2.8-1q.1-2.2.3-4.5c.1-.3.2-1 .3-1.3.4-1.6.9-3.2 1.3-4.8.7 4 1.1 8 1.7 12 2.1-3.7 3.3-7.9 4.4-12-2.4-.8-4.6-1.9-6.8-3.2zm1.3 18.7c-1.9 1.7-1.5 6.8 1.8 6 1.9-1.8 1.5-6.9-1.8-6zm3.8 1q.2 2.9.5 5.7c1.1-1.8 2.1-3.7 3.1-5.6-.9 0-2.7-.1-3.6-.1zM198.2 155.2c8.4-9.8 9.7-23.3 12.9-35.4-.1 3.7-.3 7.4-.5 11.1.2.1.5.4.7.6.3.2 1.1.7 1.4.9l.3.5c-.5 1.4-.7 3-.5 4.6-1.7 5.4-4.8 10.1-8.2 14.6-1.5-.4-3.2 1.6-1.3 2.3-1.7 1.8-3.3 3.5-5.1 5.2-3.2 2.1 2.2 4.2.8.5l4.2 2.7c-1.3.9-1.7 2.7-.9 4.2q-1.3.7-2.5 1.4c-1.1-.6-3.3.5-1.9 1.8-1.2-.2-3.5-.6-4.7-.8-2.2-1.2-3.9 1.4-1.6 2.7q-1.2 1.8-2.3 3.6-2 .7-1.8 2.8-1.4 2.4-2.9 4.8-2-.4-2.8 1.5c-.1.3-.4.9-.6 1.2-1.6-8.2-5-16-7.3-24.1 8.3-1.6 17.2-2.2 24.6-6.7zm11.2-15.7q1-3.5 1.5-7.1c-1.8 2.1-2.9 4.5-1.5 7.1z"/><path id="Layer" class="s6" d="M259.5 137.3c1.3-.4 2.5-.8 3.8-1.2l.1.7.1.8q-1.9.8-1.6 2.7c.1.7.3 2.3.4 3-.4.6-1 1.6-1.4 2.2-.5-1.8-.9-3.6-1.1-5.4-.1-.7-.2-2.1-.3-2.8zM254.9 147.4q1.2-1.3 2.5-2.6-.4 2-.8 3.9c-.5.1-1.3.1-1.8.1 0-.4.1-1 .1-1.4zM258.9 148.8h.9c.5 1.1.9 2.2 1.5 3.3l-.8-.1c-1 0-2.9-.1-3.9-.2q1.1-1.5 2.3-3z"/><path id="Layer" fill-rule="evenodd" class="s6" d="M234 155.5c1.6-1.6 3.3-3 5-4.6l.5.4q3.4 2.5 6.8 4.7l.7.5q1.5 1.7 3.3.7l.8-.3c-.5.3-1.4 1.1-1.9 1.4q-2.7 1.8-5.3 3.4c4.8 1 10.4 1.8 12 7.3.3.5.8 1.5 1.1 2 2.4.8 4.9 1.8 7.3 2.8-4.9 1.6-9.6 4-13 7.9-2.2-.3-4.4-.8-6.6-1.3q-1.3-.6-2.7-.9c-1.1-1.2-4-.6-2.6 1.3l-1.1-.4c-1.4-1.1-3.2-.1-3 1.7l-.7.6c-1.4.9-2.8 2-3.6 3.4-3.4-.4-1.6 3.5.3.7l.7.3q1.1 1.6 3.1 1.1 1.7 0 3.3-.9c.5.4 1.7 1.2 2.3 1.6l1.6 1.2q-.2 2 1.8 2.2v.8c-.5 2 1 3.4 2.8 3.7.4.1 1.3.4 1.7.5q1.7.3 3.4.5c1.1.1 3.2.2 4.3.3 1.4-.9 2.8-1.9 4.3-2.8q2-1.1.6-2.7 1.8-.6 3.5-1l.8-.2q-.7 1.6-1.4 3.1c-.2.3-.7 1.1-1 1.4-6.6 4.9-14.4 7.5-21.9 10.3-.3 2.5.3 5.3-1.1 7.5-6.3 1.7-12.8 2-19 3.7-.9-2.2-1.9-4.5-2.9-6.7l-3.4 1.4c-2.1.4-1.2 2.8-.1 3.8q.7 2.5 1.3 5c.3 1.3.9 2.8 2.4 3.2-.5.4-1.3 1.2-1.7 1.6l-4.2-1.6c-1.1-3.5-2.4-7-3.4-10.6q-.5-2.3-2.4-1.4c-2.6 1.4-4.3 3.8-5.3 6.6 2.6 2.5 5.4 4.9 8.3 7.1l.8.6c-2.1 1.5-4 3.5-6.6 3.8-1.9-.1-3.6-.9-5.3-1.5-3.1 1.5-6.1 3.1-9.1 4.6q-1.1-1.9-2.2-3.9c-.1-.3-.5-1-.7-1.3-.2-.6-.6-1.7-.8-2.2q-.3-1.7-.5-3.5c2.1-.4 3.1-2.5 3.7-4.4l.3-.7c.6 0 1.9-.1 2.6-.1.7 1.1 1.4 2.3 2.2 3.5 1.6 2.4 3.6 4.6 5.8 6.6q-.5-1.6-1.1-3.3c-.9-3.2-2.6-6.3-2.1-9.7l.8-.5c2.2-1.3 4.3-2.7 6.1-4.6.1-.5.4-1.5.6-2 .3.1.9.4 1.2.6.5.2 1.5.5 2 .7 2 1.2 4 .2 5.5-1.3 4.2-4 10.1-6 13.8-10.5 1.7-4.9-.7-9.9-1.9-14.6h-2.4c-1.5 3.1-2.4 6.8-5.4 8.9q-4.6 2.3-9.5 3.5c2.5-7.7 9-12.2 14.3-17.8 3.1-2.9 2.9-7.4 2.2-11.3q1.4-.2 2.7-.5c.6-1.1 1.2-2.2 1.9-3.2q1.2-.8 2.4-1.7c2.3 0 4.9-2 2.8-4.3 0 0 .1-.2.2-.2zm-13.8 48.8c-1.5 0-1.5 2.4 0 2.4s1.5-2.4 0-2.4zM316.8 154c10.2-2.5 20.8-2.4 31.2-3.1-3.6 16.2-10.1 34.9-27.1 40.9-8.2 2.1-16.6 4.2-25 4.4l-.7-.6c2.6-.9 5.2-1.8 7.7-2.7q-2.4-2.5-4.8-4.9c1-1.3 2-2.7 3-4l.4-.8c1.1 1.4 3.3.6 3.6-1 2.9-.7 5.9-1.4 8.9-1.8 1.7 0 3.2-.5 4.6-1.5l.5-.3c6.8-3.2 10.7-10 15.8-15.1 2.7-2.6 4.6-6 6.2-9.3q-2.1.3-4.2.7c-.7.1-2.1.3-2.8.5l-1 .2c-1.7-.4-3.3-.7-5-.8-1.2-.5-4-.1-2.9 1.7-3.8.7-7.7 1.5-11.1 3.3-5.4 4.7-10.3 9.8-15.6 14.5-.6-.4-1.7-1.1-2.3-1.5v.9q-.2 2.5-.5 4.9c-2.2-3.1-4.2-6.4-7-9.1l-.6-6.9.7-.5q3.1-2.1 6.1-4.2c.6.2 1.7.5 2.3.6q.6 2.7.8 5.3v.7q-.5 3.6-1.2 7.2c.6-2.2 1.2-4.4 1.5-6.6 1.5-.3 2.6-1.3 3.8-2.2 5.3-2.4 9.8-6 14.7-8.9zm3.6 26.7c-.7 1.4 1.8 2.9 2.9 1.9.7-1.4-1.7-2.9-2.9-1.9zm4.7 2.1q-.4 1.9-.7 3.7-3.3 2.4-6.5 4.8c6.6-1.8 12.2-5.8 16.4-11.1-2.9 1.2-6 2.3-9.2 2.6zm-5.9.9c-1.2.1-1.8 1.9-.8 2.6 1.7 1 2.8-2.5.8-2.6zm-9.8 2.8 7.6.4c-.1-.9-.1-2.6-.1-3.5-2.6.9-5.1 1.9-7.5 3.1z"/><path id="Layer" class="s6" d="M253.6 151.7q1.4 1.1 2.8 2.3c2 1.8 3.9 3.9 5.9 5.8-.8.1-2.5.3-3.4.4q-.9-1.2-1.8-2.3c-1.3-2-2.4-4.1-3.5-6.2zM203.3 157.6c2.1-.4 1.7 3.7-.1 3.7-1.4-.7-1.2-3 .1-3.7zM252.2 158.1l3.2-.2 1.8 3.2c-1.7-1-3.3-2-5-3zM204.1 163.1h.8c.3.6.9 1.8 1.2 2.3q-1.5.6-3 1 .1-1.8 1-3.3zM200.2 190.3c1.4-1.2 3.1 1.4 1.6 2.4-1.4 1.1-3.1-1.4-1.6-2.4zM189.8 196.3c3.2-.3 6.4-.7 9.7-1.1-2.8 2.1-5.6 4.2-8.1 6.6l-1.2-1.6-1.2-3.8zM176.5 200.3c-.8-1.3 1.5-2.6 2.6-1.9l.2.5c-.2 1.1-1.8 2.2-2.8 1.4zM171.1 205c-1.9-2.6 3.7-2.5 1.6 0h-1.6zM178.1 209.8q6.1-3.1 12.4-5.8c-2.5 2.8-5.4 5.6-9.3 5.9-.8 0-2.3-.1-3.1-.1zM179.9 221c.4.3 1.1.8 1.5 1 .9 1.6-.9 3.6-2.5 2.5l-.1-.7q.8-1.3 1.1-2.8zM252.2 222.2c2.6-.4.7 3.3-1 2.7-1.6-.6-.1-2.6 1-2.7zM242.3 222.8q2 1 4 1.9-2.6.8-5.3 1.6.7-1.8 1.3-3.5zM275.4 231.9c1.9-4.2 6.3-5.4 10.3-6.7-2.7 3.2-6.5 5.2-10.3 6.7zM245.2 227.3c1.3-1.1 2.8 1.3 1.4 2.2-1.3 1.1-2.8-1.3-1.4-2.2zM240.8 235.6c1.1-.5 2.4-.1 3.4.5l-.1.5c-1 .7-2.1 1-3.2.8 0-.4-.1-1.4-.1-1.8zM259.2 235.8l3.2 3c-1.6.4-4.8 1.1-6.4 1.5-2.6.3-5.3.5-7.9.8l-.4-.5 2.8-.4c3-1.2 5.9-2.7 8.7-4.4zM133 249.3c5.1 5 10 13 18.1 12.2q1 .8 2 1.7c-5.3 1.3-11.3 3.9-16.1-.1-5.2-2.6-3.5-9.2-4-13.8zM254.9 258.7l1.8 4.4c2.2 5.5 5.4 10.5 9 15.3 2.2 3 6.2 1.4 9.3 1.2-1.9 7.8-2.7 15.8-3.1 23.9 2.8-.9 5.7-2 8.5-3.1 1.5-.5 2.9-1.1 4.3-1.7.6-.5 1.9-1.5 2.4-2l1-.9c1.3 1.6 2.9 3.1 3.3 5.2.3 3.3-2.3 5.8-4.2 8.2-4.9 2.4-10.2 4-15.4 5.7-.9 5.6-1.7 11.3-2.9 16.9-.6 1.9 1.4 3.1 2.9 3.7 3.7 3.5 7.5 7 11.6 10.1 3.9 2.9 9.1 1.8 13.7 1.7q2.1-.4 1.6-2.7l.7-.6c.4-.5 1.2-1.4 1.6-1.8 1-1.1 1.7-2.4 2.1-3.8q.7-1.6 1-3.3.4-1.5.7-3c1.3-1.1 2.2-2.7 1.8-4.5v-.6c.2-2.1.5-4.3.9-6.5 2.4 1.2 6.4 1.8 6.4 5.3.2 4.1-.6 8.2-.4 12.3-2-.5-3.4 1.8-2.7 3.6-1.8 2.5-3.1 5.4-4.1 8.4q-.7 1.9-1.4 3.9c-2.3 4.6-4.6 9.1-7.7 13.2l-1-4.6q-2.3-.7-4.5-1.4l-.9-.3c-10-2.4-17.9-9.4-23.6-17.7-.5 6.2-1.5 12.5-1.2 18.8.8 4.4 3.8 8.1 4.5 12.5-1.8 1.7-4.1 2.7-6 4.2-.3 2.8-.6 5.7-.9 8.6q-.3 2.2-.6 4.5c-.1 5.8-2.7 12.7.8 18 1.8 2.7 3.7 5.3 5.7 7.9.6 1.6 1.5 3 3.1 3.7q1.8 1.1 3.7 2.3c.1-.5.4-1.6.6-2.2q1-1.4 2.2-2.7 1 4 1.9 8.1 6.7 0 13.4.1c3.1-12.5 7.7-25.2 6.4-38.1-.6-3.6-2-7-2.6-10.6-.1-.6-.4-1.8-.5-2.4 3.7 1.3 7.5 1.9 11.3 2.3 3.1 8 2.1 16.7.8 24.9l-.2.9-2.1 9.9c-2.2 1.1-.1 3.4 1.2 1.5.6-.2 1.6-.4 2.2-.5q3.8.8 7.6.9c-.7 2.7-1.4 5.4-2 8.2q-1.3-2.1-2.6-4.1-.8 3.4-1.5 6.9c-.7.2-2.1.4-2.8.5-1.5-.4-4.2-1.3-4.9.8-2.3 7-2.7 14.6-3.5 22-.4 1.4.3 2.9 1.4 3.9.1 19.4 3 38.6 3.2 58h-10.4c-.1-4.4 0-8.8-.1-13.2 1.5-.4 1.9-2.3 1.3-3.6-.1-.4-.4-1.2-.5-1.7-.4-1.7-.6-3.5-.8-5.2 0-3.2.1-6.3.3-9.4q.6-2.2-1.3-2.6l-.1-.9c-.1-3.3-.2-6.5-.4-9.7q-.2-1.9-.3-3.8c.9-1.9 1.5-4.4-.3-5.9 1.1-1.2.4-2.9-.6-3.8l-.3-9.9c-4.7.2-9.6.3-14 2-1.9.5-2.1 2.7-2.3 4.3-4.8 4.8-10.6 8.5-15.9 12.7-.3-4.8-.3-9.5-.3-14.3 4.5-2.6 8.3-6.3 11.9-10.1-3-4.6-6.2-9.2-9-13.9l-.3-.5c.1-1.6-.6-3.1-2-3.9l-.3-.8-2.1-6.3c-.5-6-1.1-12-1.2-18.1l2.8-3.8.5-.6c1.4-1.3.9-3.4.2-5 .2-.7.3-2.1.4-2.8 1.2-1.5 1.5-3.5.8-5.3-.1-4.8-.3-9.6-.3-14.4l.3-1c-.6.1-1.6.2-2.1.3-.6.1-1.9.2-2.5.3.5-3.8 1.2-7.5 1.5-11.3q2.7 1.1 5.3 2.2-.4-7.6-.9-15.2-.1-2.8-.2-5.7c.6-1.5.2-3.2-1.1-4.2q.1-2.5.2-4.9c0-.7-.1-2-.2-2.7q.1-3.9.3-7.8c1 4.8 1.8 9.6 3 14.4.2.3.6 1 .8 1.3l1.2-2c.2-7.5-2.1-14.8-5.5-21.5-1.7-5.4-1.9-11.1-2.4-16.7 2.3 4.6 4.8 9.2 7.7 13.5-.3-4.7.7-9.5-.5-14.1-1.7-4.2-5.5-7.1-8.1-10.7-1.7-5.6-2.6-11.3-3.5-17z"/><path id="Layer" class="s6" d="M297.4 371.9c1.2-.4 3.4-.8 3.7 1-.6 1.6-2.5.3-3.2-.4zM257.7 415.2c1.6.3 1.9 2.2 1.8 3.6-1.2-.8-2.4-2.1-1.8-3.6zM259.6 419.6l.1.9q.1 1.6.2 3.3c.2 7 .2 14.1.3 21.1-1-8.4-.9-16.9-.6-25.3zM260.6 462.3l.8-.6c.1.6.4 1.7.6 2.3-.3 1.4-.3 3.4 1.4 4-.1.3-.3 1-.4 1.4q-.7 1.7.6 3.2.7 3.6 1.4 7.3c-.6 1.5-.3 3.2 1 4.3 0 .6 0 1.8.1 2.4.2 1.7.7 5 .9 6.7.1.6.2 1.8.2 2.4.2 3.2.4 6.5.6 9.7.1.7.1 2.1.2 2.7q-.6 2 .3 3.9h-2.2c-.5-2.5-.9-5.1-1.2-7.6-.2-1.9-.4-3.8-.5-5.6l-.4-5.6q.8-2.1-.9-3.3c-.2-3.6-.3-7-.6-10.5-.4-5.7-1.5-11.4-1.9-17.1z"/></g></svg>